<svg xmlns="http://www.w3.org/2000/svg" width="272.692" height="58.773" viewBox="0 0 272.692 58.773"><path fill="none" stroke="#b126ed" d="M24.01 58.273q-10.913 0-17.011-5.537T.58 36.287Q.5 33.96.5 29.467q0-4.574.08-6.9Q.901 11.894 7.16 6.2T24.01.5Q34.602.5 40.9 6.2t6.621 16.366q.16 4.654.16 6.9 0 2.166-.16 6.82-.4 10.913-6.5 16.449T24.01 58.273Zm0-9.228a11.523 11.523 0 0 0 8.586-3.245q3.21-3.25 3.45-9.91.16-4.814.16-6.5 0-1.846-.16-6.5-.241-6.66-3.45-9.91a11.523 11.523 0 0 0-8.586-3.25 11.419 11.419 0 0 0-8.505 3.25q-3.21 3.25-3.45 9.91-.08 2.327-.08 6.5 0 4.092.08 6.5.241 6.66 3.41 9.91a11.389 11.389 0 0 0 8.545 3.245Zm36.188 8.425a2.038 2.038 0 0 1-1.444-.522 1.824 1.824 0 0 1-.562-1.4V3.308a1.955 1.955 0 0 1 .562-1.444 1.955 1.955 0 0 1 1.444-.562h6.339a2.477 2.477 0 0 1 2.407 1.525l15.487 28.886L100.08 2.827a2.577 2.577 0 0 1 2.4-1.527h6.259a1.955 1.955 0 0 1 1.444.562 1.955 1.955 0 0 1 .562 1.444v52.239a1.824 1.824 0 0 1-.562 1.4 2.038 2.038 0 0 1-1.444.522h-6.74a1.918 1.918 0 0 1-1.926-1.926V20.8L88.844 42.225a3.1 3.1 0 0 1-2.728 1.765h-3.29a3.1 3.1 0 0 1-2.728-1.765L68.864 20.8v34.745a1.932 1.932 0 0 1-.522 1.364 1.824 1.824 0 0 1-1.4.562Zm64.994 0a1.918 1.918 0 0 1-1.926-1.926V3.308a2.038 2.038 0 0 1 .522-1.444 1.824 1.824 0 0 1 1.4-.562h35.306a1.955 1.955 0 0 1 1.444.562 1.955 1.955 0 0 1 .562 1.444v5.3a1.824 1.824 0 0 1-.562 1.4 2.038 2.038 0 0 1-1.444.522h-26.4v14.2h24.634a2.038 2.038 0 0 1 1.444.522 1.824 1.824 0 0 1 .562 1.4v4.981a1.824 1.824 0 0 1-.562 1.4 2.038 2.038 0 0 1-1.444.522h-24.629v14.688h27.041a1.924 1.924 0 0 1 2.006 2.006v5.3a1.824 1.824 0 0 1-.562 1.4 2.038 2.038 0 0 1-1.444.522Zm49.909 0a1.918 1.918 0 0 1-1.926-1.926V3.308a2.038 2.038 0 0 1 .522-1.444 1.824 1.824 0 0 1 1.4-.562h6.183a2.394 2.394 0 0 1 1.444.361 4.165 4.165 0 0 1 .883.923l23.109 35.947V3.308a2.038 2.038 0 0 1 .522-1.444 1.824 1.824 0 0 1 1.4-.562h6.74a1.955 1.955 0 0 1 1.444.562 1.955 1.955 0 0 1 .562 1.444v52.156a1.955 1.955 0 0 1-.562 1.444 1.857 1.857 0 0 1-1.364.562h-6.259a2.838 2.838 0 0 1-2.319-1.284l-23.032-35.145v34.5a1.824 1.824 0 0 1-.562 1.4 2.038 2.038 0 0 1-1.444.522Zm74.3.8a31.49 31.49 0 0 1-12.277-2.166 18.354 18.354 0 0 1-7.783-5.7 13.362 13.362 0 0 1-2.808-7.623 1.645 1.645 0 0 1 1.685-1.685h7.141a2.59 2.59 0 0 1 1.484.361 3.707 3.707 0 0 1 1 1.163 8.182 8.182 0 0 0 3.697 4.58 14.5 14.5 0 0 0 7.863 1.846q5.7 0 8.586-1.886a5.945 5.945 0 0 0 2.891-5.26 4.927 4.927 0 0 0-1.484-3.691 12.123 12.123 0 0 0-4.413-2.487q-2.929-1.043-8.706-2.568-9.468-2.247-13.841-5.978t-4.376-10.628a14.057 14.057 0 0 1 2.528-8.265 16.887 16.887 0 0 1 7.3-5.7A27.553 27.553 0 0 1 249.003.5a25.935 25.935 0 0 1 11.394 2.327 19.045 19.045 0 0 1 7.342 5.817 12.863 12.863 0 0 1 2.688 6.941 1.633 1.633 0 0 1-.481 1.2 1.633 1.633 0 0 1-1.2.481h-7.466a2.326 2.326 0 0 1-2.327-1.525 6.5 6.5 0 0 0-3.21-4.293 12.373 12.373 0 0 0-6.74-1.725 12.766 12.766 0 0 0-7.061 1.685 5.494 5.494 0 0 0-2.568 4.895A5.348 5.348 0 0 0 240.658 20a10.8 10.8 0 0 0 4.052 2.566 68.8 68.8 0 0 0 7.984 2.487 55.5 55.5 0 0 1 11.274 3.611 14.8 14.8 0 0 1 6.219 5.055 13.9 13.9 0 0 1 2.006 7.783 14.53 14.53 0 0 1-2.849 8.947 17.694 17.694 0 0 1-8.024 5.817 32.82 32.82 0 0 1-11.916 2.007Z" data-name="Path 8601"/></svg>