<svg xmlns="http://www.w3.org/2000/svg" width="272.692" height="58.773" viewBox="0 0 272.692 58.773"><path id="Path_8601" data-name="Path 8601" d="M25.13,36.473q-10.913,0-17.011-5.537T1.7,14.487q-.08-2.327-.08-6.82,0-4.574.08-6.9Q2.021-9.906,8.28-15.6t16.85-5.7q10.592,0,16.89,5.7T48.641.766q.16,4.654.16,6.9,0,2.166-.16,6.82-.4,10.913-6.5,16.449T25.13,36.473Zm0-9.228A11.523,11.523,0,0,0,33.716,24q3.21-3.25,3.45-9.91.16-4.814.16-6.5,0-1.846-.16-6.5-.241-6.66-3.45-9.91a11.523,11.523,0,0,0-8.586-3.25,11.419,11.419,0,0,0-8.505,3.25q-3.21,3.25-3.45,9.91-.08,2.327-.08,6.5,0,4.092.08,6.5.241,6.66,3.41,9.91A11.389,11.389,0,0,0,25.13,27.245ZM61.318,35.67a2.038,2.038,0,0,1-1.444-.522,1.824,1.824,0,0,1-.562-1.4V-18.492a1.955,1.955,0,0,1,.562-1.444,1.955,1.955,0,0,1,1.444-.562h6.339a2.477,2.477,0,0,1,2.407,1.525L85.551,9.913,101.2-18.973A2.577,2.577,0,0,1,103.6-20.5h6.259a1.955,1.955,0,0,1,1.444.562,1.955,1.955,0,0,1,.562,1.444V33.745a1.824,1.824,0,0,1-.562,1.4,2.038,2.038,0,0,1-1.444.522h-6.74a1.918,1.918,0,0,1-1.926-1.926V-1L89.964,20.425a3.1,3.1,0,0,1-2.728,1.765h-3.29a3.1,3.1,0,0,1-2.728-1.765L69.984-1V33.745a1.932,1.932,0,0,1-.522,1.364,1.824,1.824,0,0,1-1.4.562Zm64.994,0a1.918,1.918,0,0,1-1.926-1.926V-18.492a2.038,2.038,0,0,1,.522-1.444,1.824,1.824,0,0,1,1.4-.562h35.306a1.955,1.955,0,0,1,1.444.562,1.955,1.955,0,0,1,.562,1.444v5.3a1.824,1.824,0,0,1-.562,1.4,2.038,2.038,0,0,1-1.444.522h-26.4v14.2h24.634a2.038,2.038,0,0,1,1.444.522,1.824,1.824,0,0,1,.562,1.4V9.833a1.824,1.824,0,0,1-.562,1.4,2.038,2.038,0,0,1-1.444.522H135.219V26.443H162.26a1.924,1.924,0,0,1,2.006,2.006v5.3a1.824,1.824,0,0,1-.562,1.4,2.038,2.038,0,0,1-1.444.522Zm49.909,0a1.918,1.918,0,0,1-1.926-1.926V-18.492a2.038,2.038,0,0,1,.522-1.444,1.824,1.824,0,0,1,1.4-.562H182.4a2.394,2.394,0,0,1,1.444.361,4.165,4.165,0,0,1,.883.923l23.109,35.947V-18.492a2.038,2.038,0,0,1,.522-1.444,1.824,1.824,0,0,1,1.4-.562h6.74a1.955,1.955,0,0,1,1.444.562,1.955,1.955,0,0,1,.562,1.444V33.664a1.955,1.955,0,0,1-.562,1.444,1.857,1.857,0,0,1-1.364.562h-6.259A2.838,2.838,0,0,1,208,34.386L184.968-.759v34.5a1.824,1.824,0,0,1-.562,1.4,2.038,2.038,0,0,1-1.444.522Zm74.3.8a31.49,31.49,0,0,1-12.277-2.166,18.354,18.354,0,0,1-7.783-5.7,13.362,13.362,0,0,1-2.808-7.623,1.645,1.645,0,0,1,1.685-1.685h7.141a2.59,2.59,0,0,1,1.484.361,3.707,3.707,0,0,1,1,1.163A8.182,8.182,0,0,0,242.66,25.4a14.5,14.5,0,0,0,7.863,1.846q5.7,0,8.586-1.886A5.945,5.945,0,0,0,262,20.1a4.927,4.927,0,0,0-1.484-3.691,12.123,12.123,0,0,0-4.413-2.487q-2.929-1.043-8.706-2.568-9.468-2.247-13.841-5.978T229.18-5.252a14.057,14.057,0,0,1,2.528-8.265,16.887,16.887,0,0,1,7.3-5.7A27.553,27.553,0,0,1,250.123-21.3a25.935,25.935,0,0,1,11.394,2.327,19.045,19.045,0,0,1,7.342,5.817,12.863,12.863,0,0,1,2.688,6.941,1.633,1.633,0,0,1-.481,1.2,1.633,1.633,0,0,1-1.2.481H262.4a2.326,2.326,0,0,1-2.327-1.525,6.5,6.5,0,0,0-3.21-4.293,12.373,12.373,0,0,0-6.74-1.725,12.766,12.766,0,0,0-7.061,1.685,5.494,5.494,0,0,0-2.568,4.895A5.348,5.348,0,0,0,241.778-1.8,10.8,10.8,0,0,0,245.83.766a68.8,68.8,0,0,0,7.984,2.487,55.5,55.5,0,0,1,11.274,3.611,14.8,14.8,0,0,1,6.219,5.055,13.9,13.9,0,0,1,2.006,7.783,14.53,14.53,0,0,1-2.849,8.947,17.694,17.694,0,0,1-8.024,5.817A32.82,32.82,0,0,1,250.524,36.473Z" transform="translate(-1.12 21.8)" fill="none" stroke="#b126ed" stroke-width="1"></path></svg>