<svg xmlns="http://www.w3.org/2000/svg" width="82.426" height="82.455" viewBox="0 0 82.426 82.455"><path fill="currentColor" d="M41.213 82.426a41.215 41.215 0 1 1 29.142-12.072 40.942 40.942 0 0 1-29.142 12.072Zm0-79.908a38.695 38.695 0 1 0 27.374 11.321A38.594 38.594 0 0 0 41.213 2.518Z"/><path fill="currentColor" d="M43.088 82.455a30.41 30.41 0 0 1-22.327-51.023c.312-.338.632-.669.956-.991a1.25 1.25 0 0 1 1.76 1.776q-.449.444-.878.911a27.9 27.9 0 1 0 22.944-8.888 1.25 1.25 0 1 1 .215-2.49 30.41 30.41 0 0 1-1.406 60.68q-.633.024-1.264.025Z"/></svg>