<svg xmlns="http://www.w3.org/2000/svg" width="108.539" height="60.687" viewBox="0 0 108.539 60.687"><path fill="currentColor" d="M57.713 60.687c-16.821 0-31.032-13.881-31.032-30.31a1.25 1.25 0 0 1 1.25-1.25h22.994a1.25 1.25 0 0 1 0 2.5H29.212c.7 14.522 13.465 26.56 28.5 26.56 18.335 0 42.948-23.079 47.825-27.836-4.781-4.927-29.3-29.006-50.6-27.509a1.25 1.25 0 0 1-.174-2.494C65.225-.38 77.414 4.326 90.996 14.339a134.024 134.024 0 0 1 17.217 15.193 1.252 1.252 0 0 1-.03 1.72A163.136 163.136 0 0 1 91.16 45.905c-13.169 9.811-24.421 14.782-33.447 14.782Z"/><path fill="currentColor" d="M50.824 60.687c-9.775 0-21.257-4.974-34.13-14.786A140.067 140.067 0 0 1 .329 31.222a1.25 1.25 0 0 1-.023-1.665 132.771 132.771 0 0 1 16.374-15.32C29.58 4.121 41.107-.64 50.915.069c15.564 1.134 31.663 12.78 31.663 30.308 0 16.428-14.541 30.31-31.754 30.31ZM2.953 30.353c4.539 4.695 27.934 27.834 47.871 27.834 15.857 0 29.254-12.735 29.254-27.81 0-16.073-14.92-26.763-29.345-27.814-19.879-1.439-43.305 22.906-47.78 27.79Z"/></svg>