<svg xmlns="http://www.w3.org/2000/svg" width="100.121" height="70.846" viewBox="0 0 100.121 70.846"><path d="M50.205 32.158a1.25 1.25 0 0 1-.973-.465l-10.569-13.1a1.25 1.25 0 1 1 1.945-1.57l9.6 11.9 9.308-11.543a1.25 1.25 0 0 1 1.946 1.571L51.177 31.693a1.249 1.249 0 0 1-.972.465Z" fill="currentColor"></path><path d="M98.872 70.846H50.061a1.25 1.25 0 0 1 0-2.5h46.383L50.061 3.371 3.678 68.346h18.516a1.25 1.25 0 0 1 0 2.5H1.25A1.25 1.25 0 0 1 .233 68.87L49.043.493a1.3 1.3 0 0 1 2.036 0l48.81 68.377a1.25 1.25 0 0 1-1.017 1.976Z" fill="currentColor"></path></svg>