<svg xmlns="http://www.w3.org/2000/svg" width="79.925" height="68.979" viewBox="0 0 79.925 68.979"><path fill="currentColor" d="M51.136 35.739a1.249 1.249 0 0 1-.962-2.047L76.017 2.5H3.909l25.843 31.192a1.25 1.25 0 0 1-1.926 1.595L.287 2.048A1.251 1.251 0 0 1 1.25 0h77.425a1.251 1.251 0 0 1 .963 2.048L52.099 35.287a1.25 1.25 0 0 1-.963.452ZM39.963 49.227a1.253 1.253 0 0 1-.963-.452l-8.383-10.12a1.25 1.25 0 0 1 1.926-1.595l7.42 8.957 7.191-8.682a1.252 1.252 0 1 1 1.926 1.6l-8.154 9.843a1.253 1.253 0 0 1-.963.449Z"/><path fill="currentColor" d="M78.675 68.979H1.25a1.251 1.251 0 0 1-.963-2.048L39 20.204a1.3 1.3 0 0 1 1.926 0l38.713 46.727a1.251 1.251 0 0 1-.963 2.048Zm-74.767-2.5h72.108L39.962 22.961Zm36.055-47.991a1.249 1.249 0 0 1-1.25-1.25v-3.54a1.25 1.25 0 0 1 2.5 0v3.54a1.25 1.25 0 0 1-1.25 1.25Z"/></svg>