<svg xmlns="http://www.w3.org/2000/svg" width="84.233" height="47.547" viewBox="0 0 84.233 47.547"><path d="M79.476 47.547H4.756a1.25 1.25 0 0 1 0-2.5H78.32l3.232-41.293-23.485 13.609a1.251 1.251 0 0 1-1.254-2.164L82.359.399a1.251 1.251 0 0 1 1.873 1.18l-3.507 44.818a1.249 1.249 0 0 1-1.249 1.15Z" fill="currentColor"></path><path d="M79.476 47.547H4.756a1.249 1.249 0 0 1-1.246-1.152L.004 1.577A1.251 1.251 0 0 1 1.877.397l48.751 28.248a1.251 1.251 0 0 1-1.254 2.164L2.682 3.754l3.23 41.293h73.564a1.25 1.25 0 0 1 0 2.5Z" fill="currentColor"></path><path d="M57.147 17.531a1.244 1.244 0 0 1-.883-.366L42.116 3.018 27.967 17.165a1.25 1.25 0 0 1-1.768-1.768L41.23.366a1.251 1.251 0 0 1 1.768 0l15.031 15.031a1.25 1.25 0 0 1-.884 2.134Z" fill="currentColor"></path></svg>