<svg xmlns="http://www.w3.org/2000/svg" width="91.264" height="69.877" viewBox="0 0 91.264 69.877"><path fill="currentColor" d="M45.811 69.877a1.252 1.252 0 0 1-.911-.393L.345 22.191a1.251 1.251 0 0 1-.174-1.479L11.701.629a1.25 1.25 0 0 1 1.084-.628h6.06a1.25 1.25 0 0 1 0 2.5h-5.34L2.797 21.152 45.807 66.8 88.44 21.188 76.517 2.501H30.731a1.25 1.25 0 0 1 0-2.5h46.471a1.251 1.251 0 0 1 1.054.578l12.812 20.083a1.25 1.25 0 0 1-.14 1.525l-44.2 47.293a1.254 1.254 0 0 1-.91.4Z"/><path fill="currentColor" d="M1.245 22.584a1.25 1.25 0 0 1-.273-2.47l53.334-12a1.25 1.25 0 0 1 .549 2.44l-53.335 12a1.294 1.294 0 0 1-.275.03Z"/><path fill="currentColor" d="M90.015 22.584a1.256 1.256 0 0 1-.4-.067L30.329 2.435a1.25 1.25 0 1 1 .8-2.367l59.284 20.083a1.25 1.25 0 0 1-.4 2.434Z"/></svg>