<svg xmlns="http://www.w3.org/2000/svg" width="480.24" height="74.08" viewBox="0 0 480.24 74.08"><defs><linearGradient id="b" x1=".793" x2=".024" gradientUnits="objectBoundingBox"><stop offset="0" stop-color="#a863ed"/><stop offset=".483" stop-color="#db46ff"/><stop offset="1" stop-color="#df6dfa"/></linearGradient><clipPath id="a"><path fill="#272727" d="M39.52-18.16c-.72 3.12-2.48 7.84-8.96 7.84-8.48 0-10.72-8.64-10.72-17.36 0-9.68 2.72-17.12 10.56-17.12 6 0 8.24 3.68 9.04 7.6h16c-1.12-9.52-8.48-18.96-24.64-18.96-18.96 0-27.6 13.44-27.6 29.04 0 16 8.72 28.16 26.8 28.16 15.12 0 23.52-7.68 25.6-19.2Zm39.92-24.8c-15.04 0-22.72 9.44-22.72 22.08 0 12.16 7.36 21.92 22.24 21.92 14.4 0 22.48-8.96 22.48-22.08 0-12.72-8.16-21.92-22-21.92Zm-.32 10.56c4.24 0 6.4 2.96 6.4 11.6 0 7.76-2.24 11.36-6.32 11.36-4.24 0-6.56-3.52-6.56-11.52 0-8.64 2.56-11.44 6.48-11.44ZM104.4 0h15.44v-24.16c0-5.44 1.44-7.36 4.88-7.36s4.24 2.56 4.24 5.76V0h15.36v-24.48c0-4.8 1.28-7.12 4.8-7.12 3.36 0 4.4 2.56 4.4 5.68V0h15.2v-27.28c0-10.72-5.76-15.68-13.6-15.68-6.96 0-10.4 2.96-12.88 5.76-1.36-2.64-4.4-5.76-10.64-5.76a14.144 14.144 0 0 0-11.84 5.52c-.08-1.52-.32-3.52-.48-4.48h-14.96c.08 3.52.08 7.6.08 11.44Zm69.12 0h15.6v-41.92h-15.6Zm15.6-47.12v-10.8h-15.6v10.8ZM194.08 0h15.6v-23.92c0-5.92 2-7.6 5.28-7.6 3.6 0 4.8 2.24 4.8 6.32V0h15.52v-27.04c0-10.24-5.28-15.92-13.68-15.92-6.88 0-10.32 3.28-11.92 5.68a39.44 39.44 0 0 0-.48-4.64H194c.08 3.28.08 7.2.08 10.88Zm87.76-29.92c0-4.88.08-8.8.16-12h-15.12c-.08.72-.32 2.8-.4 3.84-.64-1.92-3.6-4.88-10.32-4.88-10.48 0-18 8.96-18 22 0 11.12 6 20.08 17.04 20.08 5.92 0 9.12-2.08 11.28-5.28v2.24c0 6.88-1.12 10.08-6.56 10.08-3.52 0-4.88-1.52-5.44-3.76h-15.36c.4 4.72 3.36 13.76 20.24 13.76 17.68 0 22.48-8.72 22.48-22.4Zm-27.68 8.24c0-7.68 2.96-10.56 6.56-10.56 5.52 0 6.24 3.84 6.24 10.4 0 6.24-1.2 10.16-6.48 10.16-3.92 0-6.32-3.68-6.32-10Zm43.92 4.96c1.2 10.64 9.28 17.76 24.56 17.76 16.16 0 24.16-7.2 24.16-17.52 0-7.84-3.44-14-20.4-18.24-8.48-2.08-10.48-3.2-10.48-6.24 0-2.96 2.24-4.32 5.92-4.32 5.76 0 7.28 2.96 7.68 5.92h15.6c-.72-8.64-7.28-16.8-23.2-16.8-15.36 0-22.16 7.76-22.16 17.04 0 7.44 3.28 13.36 19.52 17.28 8.72 2.08 11.12 3.44 11.12 7.04 0 3.2-2.24 4.96-7.12 4.96-5.2 0-8.56-2.08-9.52-6.88Zm72.96-26.24c-15.04 0-22.72 9.44-22.72 22.08 0 12.16 7.36 21.92 22.24 21.92 14.4 0 22.48-8.96 22.48-22.08 0-12.72-8.16-21.92-22-21.92Zm-.32 10.56c4.24 0 6.4 2.96 6.4 11.6 0 7.76-2.24 11.36-6.32 11.36-4.24 0-6.56-3.52-6.56-11.52 0-8.64 2.56-11.44 6.48-11.44Zm46.48-10.56c-15.04 0-22.72 9.44-22.72 22.08 0 12.16 7.36 21.92 22.24 21.92 14.4 0 22.48-8.96 22.48-22.08 0-12.72-8.16-21.92-22-21.92Zm-.32 10.56c4.24 0 6.4 2.96 6.4 11.6 0 7.76-2.24 11.36-6.32 11.36-4.24 0-6.56-3.52-6.56-11.52 0-8.64 2.56-11.44 6.48-11.44ZM442.24 0h15.6v-23.92c0-5.92 2-7.6 5.28-7.6 3.6 0 4.8 2.24 4.8 6.32V0h15.52v-27.04c0-10.24-5.28-15.92-13.68-15.92-6.88 0-10.32 3.28-11.92 5.68a39.437 39.437 0 0 0-.48-4.64h-15.2c.08 3.28.08 7.2.08 10.88Z" transform="translate(240 412)"/></clipPath></defs><g clip-path="url(#a)" transform="translate(-243.2 -354.08)"><path fill="url(#b)" d="M0 0h654v148H0z" transform="translate(115 303)"/></g></svg>