<svg xmlns="http://www.w3.org/2000/svg" width="41.585" height="59.737" viewBox="0 0 41.585 59.737"><g data-name="Group 5683"><path fill="#e4e3e5" d="M314.659 543.669c0 1.941-5.981 3.515-13.36 3.515s-13.36-1.574-13.36-3.515 5.981-3.517 13.36-3.517 13.36 1.574 13.36 3.517Z" data-name="Path 8597" style="mix-blend-mode:multiply;isolation:isolate" transform="translate(-280.896 -487.447)"/><path fill="#f58a4e" d="M20.792 0A20.792 20.792 0 0 0 0 20.793c0 12.278 20.792 35.991 20.792 35.991s20.792-22.8 20.792-35.991A20.792 20.792 0 0 0 20.792 0Zm0 28.939a9 9 0 1 1 9-9 9 9 0 0 1-9 9Z" data-name="Path 8598"/></g></svg>