<svg xmlns="http://www.w3.org/2000/svg" width="41.585" height="59.737" viewBox="0 0 41.585 59.737"><g id="Group_5683" data-name="Group 5683" transform="translate(0 -0.001)"><path id="Path_8597" data-name="Path 8597" d="M314.659,543.669c0,1.941-5.981,3.515-13.36,3.515s-13.36-1.574-13.36-3.515,5.981-3.517,13.36-3.517S314.659,541.726,314.659,543.669Z" transform="translate(-280.896 -487.446)" fill="#e4e3e5" style="mix-blend-mode: multiply;isolation: isolate"></path><path id="Path_8598" data-name="Path 8598" d="M292.974,422.246a20.792,20.792,0,0,0-20.792,20.793c0,12.278,20.792,35.991,20.792,35.991s20.792-22.8,20.792-35.991A20.792,20.792,0,0,0,292.974,422.246Zm0,28.939a9,9,0,1,1,9-9A9,9,0,0,1,292.974,451.185Z" transform="translate(-272.182 -422.245)" fill="#f58a4e"></path></g></svg>