<svg xmlns="http://www.w3.org/2000/svg" width="97.792" height="68.373" viewBox="0 0 97.792 68.373"><g fill="#fd7729"><path d="M63.606 68.373a1.789 1.789 0 0 1-1.271-.527l-7.35-7.356a1.8 1.8 0 1 1 2.541-2.539l6.084 6.084 29.843-29.849L63.606 4.337l-6.084 6.086a1.8 1.8 0 1 1-2.537-2.541l7.35-7.355a1.849 1.849 0 0 1 2.541 0l32.389 32.385a1.794 1.794 0 0 1 0 2.541L64.877 67.845a1.789 1.789 0 0 1-1.271.527"/><path d="M34.186 68.373a1.789 1.789 0 0 1-1.271-.527L.525 35.457a1.8 1.8 0 0 1 0-2.541L32.916.527a1.794 1.794 0 0 1 2.541 0l10.284 10.284a1.8 1.8 0 1 1-2.541 2.541L34.186 4.34 4.337 34.186l29.849 29.849 29.849-29.849L50.145 20.3a1.8 1.8 0 1 1 2.541-2.539l15.159 15.155a1.794 1.794 0 0 1 0 2.541L35.457 67.845a1.789 1.789 0 0 1-1.271.527"/><path d="M70.046 47.223a1.8 1.8 0 0 1-1.271-3.069l9.967-9.968L48.896 4.34l-6.084 6.084a1.8 1.8 0 0 1-2.542-2.542L47.625.527a1.846 1.846 0 0 1 2.539 0l32.391 32.385a1.8 1.8 0 0 1 0 2.541L71.317 46.695a1.789 1.789 0 0 1-1.271.527m-21.15 21.151a1.789 1.789 0 0 1-1.271-.527l-7.355-7.355a1.8 1.8 0 0 1 2.541-2.539l6.085 6.085 13.862-13.866a1.8 1.8 0 1 1 2.541 2.541L50.167 67.846a1.789 1.789 0 0 1-1.271.527"/></g></svg>