<svg xmlns="http://www.w3.org/2000/svg" width="103.131" height="79" viewBox="0 0 103.131 79"><g fill="#fd7729"><path d="M55.064 43.304a1.929 1.929 0 0 1-1.9-2.02c.38-6.332 5.212-9.3 8.732-10.313V15.558a1.905 1.905 0 1 1 3.81 0v16.95a1.906 1.906 0 0 1-1.656 1.89c-.267.038-6.715 1.015-7.083 7.116a1.9 1.9 0 0 1-1.9 1.791"/><path d="M63.797 64.823H32.602a1.907 1.907 0 0 1-1.906-1.906v-6.226a41.657 41.657 0 0 0-1.874-12.36l-.908-2.926a21.346 21.346 0 0 1-.963-6.344v-2.69a1.905 1.905 0 1 1 3.81 0v2.692a17.6 17.6 0 0 0 .79 5.214l.908 2.926a45.409 45.409 0 0 1 2.047 13.488v4.322H61.89V50.082a1.911 1.911 0 0 1 .512-1.3l7.649-8.215a11.419 11.419 0 0 0 3.072-7.8V15.851a3.9 3.9 0 0 0-3.374-3.987 3.711 3.711 0 0 0-4.049 3.695 1.905 1.905 0 1 1-3.81 0 7.521 7.521 0 0 1 8.189-7.491 7.725 7.725 0 0 1 6.854 7.783v16.912a15.226 15.226 0 0 1-4.093 10.4l-7.139 7.668v12.086a1.905 1.905 0 0 1-1.9 1.906"/><path d="M65.891 78.999H30.506a1.9 1.9 0 0 1-1.9-1.906V62.92a1.905 1.905 0 0 1 1.9-1.906h35.385a1.905 1.905 0 0 1 1.9 1.906v14.173a1.9 1.9 0 0 1-1.9 1.906m-33.479-3.81h31.573V64.824H32.412Zm27.014-48.6a6.281 6.281 0 0 1-6.273-6.273V7.999a6.274 6.274 0 1 1 12.547 0v12.316a6.281 6.281 0 0 1-6.274 6.274m0-21.052a2.466 2.466 0 0 0-2.46 2.462v12.316a2.463 2.463 0 1 0 4.926 0V7.999a2.466 2.466 0 0 0-2.466-2.463"/><path d="M50.693 28.313a6.28 6.28 0 0 1-6.273-6.273V6.272a6.274 6.274 0 0 1 12.547 0V22.04a6.28 6.28 0 0 1-6.274 6.273m0-24.5a2.466 2.466 0 0 0-2.463 2.463V22.04a2.463 2.463 0 1 0 4.926 0V6.272a2.466 2.466 0 0 0-2.463-2.463"/><path d="M41.961 26.589a6.281 6.281 0 0 1-6.273-6.273V7.999a6.272 6.272 0 1 1 12.545 0v12.316a6.279 6.279 0 0 1-6.272 6.274m0-21.052A2.466 2.466 0 0 0 39.498 8v12.315a2.462 2.462 0 1 0 4.924 0V7.999a2.463 2.463 0 0 0-2.461-2.463"/><path d="M33.228 25.079a6.281 6.281 0 0 1-6.273-6.273v-6.994a6.274 6.274 0 1 1 12.547 0v6.993a6.281 6.281 0 0 1-6.274 6.274m0-15.73a2.466 2.466 0 0 0-2.463 2.463v6.993a2.463 2.463 0 0 0 4.926 0v-6.993a2.466 2.466 0 0 0-2.463-2.463m30.568 24.928H20.602a1.905 1.905 0 0 1 0-3.81h43.194a1.905 1.905 0 0 1 0 3.81"/><path d="M28.857 20.218h-8.864a1.905 1.905 0 0 1 0-3.81h8.864a1.905 1.905 0 0 1 0 3.81m46.169 58.78H23.744a1.905 1.905 0 0 1 0-3.81h51.282a1.905 1.905 0 1 1 0 3.81m7.515-44.72H75.03a1.9 1.9 0 0 1-1.9-1.906V18.314a1.905 1.905 0 0 1 1.9-1.906h8.121a1.906 1.906 0 0 1 1.418 3.18 9.132 9.132 0 0 0-.5 11.636 1.905 1.905 0 0 1-1.519 3.053m-5.62-3.81h2.37a12.963 12.963 0 0 1 .323-10.249H76.93Z"/><path d="M91.391 38.706a12.994 12.994 0 1 1 11.025-19.851 1.906 1.906 0 0 1-1.618 2.914h-6.153l-2.609 3.574 2.609 3.574h6.583a1.907 1.907 0 0 1 1.689 2.786 12.958 12.958 0 0 1-11.525 7m0-22.178a9.184 9.184 0 1 0 5.924 16.2h-3.639a1.9 1.9 0 0 1-1.538-.781l-4-5.481a1.9 1.9 0 0 1 0-2.246l4-5.481a1.9 1.9 0 0 1 1.538-.783h2.633a9.133 9.133 0 0 0-4.919-1.426M11.74 38.706a12.96 12.96 0 0 1-11.525-7A1.905 1.905 0 0 1 1.9 28.917h6.58l2.62-3.574-2.616-3.577H2.331a1.9 1.9 0 0 1-1.616-2.914A12.99 12.99 0 1 1 11.74 38.706m-5.924-5.979a9.182 9.182 0 1 0 1.005-14.771h2.633a1.908 1.908 0 0 1 1.538.781l4 5.481a1.908 1.908 0 0 1 0 2.248l-4 5.481a1.908 1.908 0 0 1-1.538.781Z"/></g></svg>