<svg xmlns="http://www.w3.org/2000/svg" width="69.093" height="68.373" viewBox="0 0 69.093 68.373"><g fill="#fd7729"><path d="M40.213 24.477H8.947a1.385 1.385 0 0 1 0-2.77h31.266a1.385 1.385 0 0 1 0 2.77m19.932 0H48.253a1.385 1.385 0 1 1 0-2.77h11.892a1.385 1.385 0 0 1 0 2.77M41.179 68.372H27.916a1.384 1.384 0 0 1-1.384-1.386V53.961a1.385 1.385 0 0 1 2.233-1.094 9.423 9.423 0 0 0 11.565 0 1.385 1.385 0 0 1 2.235 1.094v13.025a1.384 1.384 0 0 1-1.384 1.386m-11.877-2.77h10.489v-9.165a12.349 12.349 0 0 1-10.491 0Z"/><path d="M34.554 57.622c-.163 0-.324 0-.487-.01a12.356 12.356 0 0 1-11.759-12.174 12.189 12.189 0 0 1 6.664-10.942 1.384 1.384 0 0 1 2.017 1.233v5.453a3.558 3.558 0 0 0 7.115 0v-5.453a1.384 1.384 0 0 1 2.017-1.233 12.235 12.235 0 0 1-5.567 23.126m-6.335-19.277a9.412 9.412 0 0 0-3.141 7.077 9.557 9.557 0 0 0 9.095 9.417 9.465 9.465 0 0 0 6.7-16.5v2.843a6.328 6.328 0 0 1-12.656 0Zm39.49 30.027H1.386a1.385 1.385 0 1 1 0-2.77h66.323a1.385 1.385 0 1 1 0 2.77"/><path d="M60.143 68.372h-51.2a1.384 1.384 0 0 1-1.38-1.386v-42.51H4.605a1.384 1.384 0 0 1-1.384-1.384v-7.478a1.381 1.381 0 0 1 .791-1.25L33.952.133a1.387 1.387 0 0 1 1.189 0l11.115 5.281V1.968A1.384 1.384 0 0 1 47.643.584h8.611a1.384 1.384 0 0 1 1.384 1.384v8.856l7.446 3.539a1.384 1.384 0 0 1 .791 1.25v7.477a1.385 1.385 0 0 1-1.386 1.384h-2.958v42.51a1.385 1.385 0 0 1-1.388 1.388m-49.81-2.773h48.428V23.091a1.385 1.385 0 0 1 1.382-1.386h2.96v-5.216l-7.446-3.537a1.388 1.388 0 0 1-.791-1.252V3.354h-5.84v4.253a1.387 1.387 0 0 1-1.983 1.252l-12.5-5.942L5.991 16.489v5.216h2.952a1.385 1.385 0 0 1 1.39 1.386Z"/></g></svg>