<svg xmlns="http://www.w3.org/2000/svg" width="78.082" height="79" viewBox="0 0 78.082 79"><g fill="#fd7729"><path d="M63.689 43.355a1.593 1.593 0 0 1-1.592-1.592v-7.837a1.592 1.592 0 0 1 3.184 0v7.834a1.593 1.593 0 0 1-1.592 1.592m-.002 35.647H7.249a1.591 1.591 0 0 1-1.59-1.59V34.336a1.591 1.591 0 1 1 3.182 0v41.481h53.256v-2.652a1.592 1.592 0 0 1 3.184 0v4.244a1.592 1.592 0 0 1-1.592 1.59"/><path d="M69.345 39.393a1.584 1.584 0 0 1-.9-.278L35.47 16.533 2.49 39.115A1.591 1.591 0 0 1 0 37.8V25.354a1.589 1.589 0 0 1 .678-1.3L34.555.288a1.591 1.591 0 0 1 1.826 0L70.26 24.052a1.589 1.589 0 0 1 .678 1.3V37.8a1.59 1.59 0 0 1-1.592 1.59M3.182 26.182v8.6l31.387-21.49a1.588 1.588 0 0 1 1.8 0l31.386 21.492v-8.6L35.47 3.535ZM45.746 79H25.19a1.592 1.592 0 0 1-1.592-1.59v-24.9a1.591 1.591 0 0 1 1.592-1.59h20.556a1.59 1.59 0 0 1 1.592 1.59v24.9A1.591 1.591 0 0 1 45.746 79M26.78 75.818h17.376V54.105H26.78Zm38.818-5.848A12.483 12.483 0 1 1 78.08 57.488 12.5 12.5 0 0 1 65.598 69.97m0-21.784a9.3 9.3 0 1 0 9.3 9.3 9.311 9.311 0 0 0-9.3-9.3"/><path d="M65.6 61.677a1.6 1.6 0 0 1-1.07-.412l-5.322-4.827a1.592 1.592 0 0 1 2.138-2.358l3.992 3.619 8.492-12.023a1.591 1.591 0 1 1 2.6 1.836L66.9 61.003a1.593 1.593 0 0 1-1.127.664 1.279 1.279 0 0 1-.173.01M72.811 79H1.59a1.591 1.591 0 0 1 0-3.182h71.221a1.591 1.591 0 0 1 0 3.182M15.81 40.901a1.591 1.591 0 0 1-.93-2.883l19.662-14.144a1.591 1.591 0 0 1 1.86 2.583L16.738 40.602a1.591 1.591 0 0 1-.928.3"/><path d="M55.13 40.901a1.582 1.582 0 0 1-.928-.3L34.54 26.457a1.591 1.591 0 1 1 1.858-2.583L56.06 38.019a1.591 1.591 0 0 1-.93 2.883"/></g></svg>