<svg xmlns="http://www.w3.org/2000/svg" width="93.919" height="85.674" viewBox="0 0 93.919 85.674"><g fill="#fd7729"><path d="M33.238 49.093a15.842 15.842 0 0 1-15.826-15.826v-3.638a1.79 1.79 0 0 1 1.79-1.79h28.071a1.792 1.792 0 0 1 1.792 1.79v3.639a15.844 15.844 0 0 1-15.827 15.825M20.993 31.42v1.847a12.245 12.245 0 0 0 24.49 0V31.42Zm6.382-14.622a1.792 1.792 0 0 1-1.792-1.79V7.27a1.791 1.791 0 1 1 3.581 0v7.738a1.791 1.791 0 0 1-1.79 1.792m11.725-.002a1.792 1.792 0 0 1-1.792-1.79V7.27a1.791 1.791 0 1 1 3.581 0v7.738a1.791 1.791 0 0 1-1.79 1.792"/><path d="M48.653 31.42H17.817a5.379 5.379 0 0 1-5.373-5.371V23.69a5.379 5.379 0 0 1 5.373-5.371h30.836a5.379 5.379 0 0 1 5.373 5.371v2.359a5.379 5.379 0 0 1-5.373 5.371M17.817 21.9a1.791 1.791 0 0 0-1.79 1.79v2.359a1.791 1.791 0 0 0 1.79 1.79h30.836a1.792 1.792 0 0 0 1.792-1.79V23.69a1.792 1.792 0 0 0-1.792-1.79Z"/><path d="M50.049 22.042a1.8 1.8 0 0 1-.508-.073 1.3 1.3 0 0 0-.348-.064H17.279a1.3 1.3 0 0 0-.348.064 1.793 1.793 0 0 1-2.268-2.045 18.884 18.884 0 0 1 37.147 0 1.793 1.793 0 0 1-1.761 2.118M18.78 18.32h28.912a15.3 15.3 0 0 0-28.911 0m45.901 67.355H1.792A1.791 1.791 0 0 1 0 83.886V73.794c0-13.132 9.012-23.816 20.088-23.816a5.055 5.055 0 0 0 4.827-3.515c.115-.359.222-.727.317-1.1a1.8 1.8 0 0 1 2.537-1.153 12.183 12.183 0 0 0 10.934 0 1.793 1.793 0 0 1 2.535 1.153c.1.373.2.741.319 1.1a5.05 5.05 0 0 0 4.825 3.515c11.079 0 20.088 10.684 20.088 23.816v10.092a1.79 1.79 0 0 1-1.79 1.79m-61.1-3.581h59.31v-8.3c0-11.156-7.4-20.234-16.507-20.234a8.623 8.623 0 0 1-7.992-5.333 15.765 15.765 0 0 1-10.309 0 8.624 8.624 0 0 1-7.994 5.333c-9.1 0-16.507 9.078-16.507 20.234Z"/><path d="M51.428 85.675H15.046a1.79 1.79 0 0 1-1.79-1.79V72.477a6.867 6.867 0 0 1 6.861-6.861h26.241a6.865 6.865 0 0 1 6.859 6.861v11.409a1.79 1.79 0 0 1-1.79 1.79m-34.59-3.582h32.8v-9.617a3.282 3.282 0 0 0-3.277-3.28H20.117a3.282 3.282 0 0 0-3.28 3.28Z"/><path d="M19.201 69.195a1.792 1.792 0 0 1-1.792-1.791V51.795a1.792 1.792 0 1 1 3.583 0v15.609a1.792 1.792 0 0 1-1.792 1.792m28.072-.001a1.791 1.791 0 0 1-1.79-1.792V51.795a1.791 1.791 0 1 1 3.581 0v15.609a1.792 1.792 0 0 1-1.791 1.791m20.942-10.211a1.79 1.79 0 0 1-.248-3.563A26.049 26.049 0 1 0 50.173 7.74a1.791 1.791 0 0 1-1.944-3.009 29.631 29.631 0 1 1 20.238 54.235 1.937 1.937 0 0 1-.253.018"/><path d="M64.292 17.257a1.792 1.792 0 0 1-1.792-1.792V8.177a1.791 1.791 0 1 1 3.581 0v7.289a1.791 1.791 0 0 1-1.789 1.792m8.273-.175a1.791 1.791 0 0 1-1.55-2.685l2.453-4.246a1.791 1.791 0 1 1 3.1 1.79l-2.453 4.246a1.789 1.789 0 0 1-1.552.9m6.064 6.056a1.791 1.791 0 0 1-.9-3.342l4.246-2.45a1.79 1.79 0 1 1 1.792 3.1l-4.244 2.453a1.79 1.79 0 0 1-.894.239m7.119 8.276h-7.291a1.791 1.791 0 0 1 0-3.581h7.291a1.791 1.791 0 0 1 0 3.581m-2.877 10.726a1.79 1.79 0 0 1-.894-.239l-4.246-2.453a1.791 1.791 0 0 1 1.792-3.1l4.244 2.453a1.791 1.791 0 0 1-.9 3.342m-7.846 7.849a1.789 1.789 0 0 1-1.552-.9l-2.45-4.244a1.79 1.79 0 1 1 3.1-1.792l2.45 4.246a1.789 1.789 0 0 1-1.548 2.685m-10.727 2.881a1.792 1.792 0 0 1-1.792-1.792v-7.288a1.791 1.791 0 1 1 3.581 0v7.289a1.791 1.791 0 0 1-1.789 1.792m-10.731-2.877a1.791 1.791 0 0 1-1.55-2.685l2.453-4.246a1.79 1.79 0 1 1 3.1 1.792l-2.45 4.244a1.789 1.789 0 0 1-1.552.9m2.453-32.92a1.789 1.789 0 0 1-1.552-.9l-2.452-4.239a1.791 1.791 0 1 1 3.1-1.79l2.453 4.246a1.791 1.791 0 0 1-1.549 2.683m13.6 14.337H64.29a1.791 1.791 0 0 1-1.79-1.792v-6.1a1.791 1.791 0 1 1 3.581 0v4.306h3.534a1.791 1.791 0 1 1 0 3.581m16.13 54.258H3.788a1.791 1.791 0 0 1 0-3.581h81.957a1.791 1.791 0 0 1 0 3.581"/></g></svg>