<svg xmlns="http://www.w3.org/2000/svg" width="88.207" height="82.928" viewBox="0 0 88.207 82.928"><g fill="#fd7729"><path d="M0 21.673V44.95a6.132 6.132 0 0 0 6.125 6.125H49v-2.45H13.476v-2.45H49v-2.45H11.026v4.9h-4.9A3.68 3.68 0 0 1 2.45 44.95v-3.675H49v-2.45H2.45V21.673a3.68 3.68 0 0 1 3.675-3.675H49v-2.45H6.125A6.132 6.132 0 0 0 0 21.673m82.081-6.125h-1.225v2.45h1.225a3.68 3.68 0 0 1 3.675 3.675V37.6h2.45V21.673a6.132 6.132 0 0 0-6.125-6.125"/><path d="M76.504 34.73a3.656 3.656 0 0 0-3.287-2.03h-2.161v-7.614A13.461 13.461 0 0 0 70.321.751L68.605 0v11.872h-7.35V0L59.54.751a13.461 13.461 0 0 0-.735 24.335v7.964a3.628 3.628 0 0 0-1.776 4.968 3.7 3.7 0 0 0 .549.806h-2.449a3.68 3.68 0 0 0-3.675 3.676 3.635 3.635 0 0 0 .491 1.8 3.66 3.66 0 0 0-.065 6.161 3.659 3.659 0 0 0 1.068 6.6 3.663 3.663 0 0 0 3.406 5.039h2.45v14.7a6.126 6.126 0 0 0 12.251 0V62.1h4.14a6.1 6.1 0 0 0 4.265-1.729l.745-.722h3.1V57.2h-4.1l-1.458 1.414a3.657 3.657 0 0 1-2.558 1.036h-9.26a3.562 3.562 0 0 0-.73-3.675 3.646 3.646 0 0 0-.7-5.513 3.66 3.66 0 0 0-.06-6.162 3.591 3.591 0 0 0-.464-4.252h5.854V37.6h-9.51a1.225 1.225 0 1 1 0-2.45h12.9a1.217 1.217 0 0 1 1.1.677l2.11 4.223h6.883V37.6h-5.374Zm-22.6-21.63a11.025 11.025 0 0 1 4.9-9.164v10.387h12.252V3.934A11.024 11.024 0 1 1 53.904 13.1m11.025 13.474a13.434 13.434 0 0 0 3.675-.522V32.7h-7.349v-6.648a13.434 13.434 0 0 0 3.675.522m-9.8 14.7h6.125a1.225 1.225 0 0 1 0 2.45h-6.126a1.225 1.225 0 0 1 0-2.45m7.351 4.9a1.225 1.225 0 0 1 0 2.45h-8.576a1.225 1.225 0 0 1 0-2.45h8.576ZM53.904 52.3h8.576a1.225 1.225 0 0 1 0 2.45h-8.576a1.225 1.225 0 0 1 0-2.45m14.7 24.5a3.675 3.675 0 0 1-7.351 0V62.1h7.351Zm-12.25-17.149a1.225 1.225 0 0 1 0-2.45h6.125a1.225 1.225 0 0 1 0 2.45ZM6.125 31.474h9.801v2.45H6.125zm12.251 0h2.45v2.45h-2.45zm-3.675 24.502h-2.45a2.767 2.767 0 0 1-.93 2.059 5.155 5.155 0 0 0 0 7.311 2.751 2.751 0 0 1 0 4.124 5.106 5.106 0 0 0-1.52 3.657h2.45a2.77 2.77 0 0 1 .93-2.062 5.157 5.157 0 0 0 0-7.313 2.75 2.75 0 0 1 0-4.122 5.1 5.1 0 0 0 1.52-3.654m14.701 0h-2.45a2.767 2.767 0 0 1-.93 2.059 5.155 5.155 0 0 0 0 7.311 2.751 2.751 0 0 1 0 4.124 5.106 5.106 0 0 0-1.52 3.657h2.45a2.77 2.77 0 0 1 .93-2.062 5.157 5.157 0 0 0 0-7.313 2.75 2.75 0 0 1 0-4.122 5.1 5.1 0 0 0 1.52-3.654m14.701 0h-2.45a2.767 2.767 0 0 1-.93 2.059 5.155 5.155 0 0 0 0 7.311 2.751 2.751 0 0 1 0 4.124 5.106 5.106 0 0 0-1.52 3.657h2.45a2.77 2.77 0 0 1 .93-2.062 5.157 5.157 0 0 0 0-7.313 2.75 2.75 0 0 1 0-4.122 5.1 5.1 0 0 0 1.52-3.654"/></g></svg>