<svg xmlns="http://www.w3.org/2000/svg" width="57.043" height="68.373" viewBox="0 0 57.043 68.373"><g fill="#fd7729"><path d="M28.166 68.374A148.913 148.913 0 0 1 9 67.287c-7.472-1.022-9-2.3-9-3.9v-3.622c0-11.234 7.692-20.371 17.148-20.371a4.607 4.607 0 0 0 4.4-3.2c.1-.313.194-.636.277-.962a1.317 1.317 0 0 1 1.864-.847 10.777 10.777 0 0 0 9.669 0 1.315 1.315 0 0 1 1.862.846q.127.489.279.962a4.606 4.606 0 0 0 4.4 3.2c9.454 0 17.146 9.138 17.146 20.371v3.621c0 1.6-1.592 2.876-9.364 3.9a156.743 156.743 0 0 1-19.513 1.085m-25.534-5.3c1.62 1.155 11.03 2.668 25.534 2.668 14.666 0 24.552-1.55 26.245-2.689v-3.284C54.411 49.984 47.9 42.031 39.9 42.031a7.229 7.229 0 0 1-6.781-4.677 13.4 13.4 0 0 1-9.187 0 7.231 7.231 0 0 1-6.784 4.677c-8.005 0-14.516 7.958-14.516 17.739Z"/><path d="M28.52 38.164a13.475 13.475 0 0 1-13.457-13.46v-3.149a1.315 1.315 0 0 1 1.317-1.315h24.284a1.316 1.316 0 0 1 1.317 1.315v3.149a13.475 13.475 0 0 1-13.461 13.46M17.695 22.872v1.832a10.827 10.827 0 1 0 21.654 0v-1.832Zm5.758-12.651a1.315 1.315 0 0 1-1.315-1.315v-6.7a1.316 1.316 0 1 1 2.632 0v6.7a1.316 1.316 0 0 1-1.317 1.315m10.14 0a1.315 1.315 0 0 1-1.315-1.315v-6.7a1.316 1.316 0 1 1 2.632 0v6.7a1.316 1.316 0 0 1-1.317 1.315"/><path d="M28.879 68.373a156.789 156.789 0 0 1-19.515-1.085C1.592 66.263 0 64.987 0 63.386v-3.621c0-11.234 7.692-20.371 17.148-20.371a4.608 4.608 0 0 0 4.4-3.2c.1-.315.194-.637.277-.963a1.317 1.317 0 0 1 1.864-.847 10.777 10.777 0 0 0 9.669 0 1.315 1.315 0 0 1 1.862.847q.127.489.279.962a4.606 4.606 0 0 0 4.4 3.2c9.454 0 17.146 9.139 17.146 20.371v3.621c0 1.6-1.53 2.878-9 3.9a148.913 148.913 0 0 1-19.164 1.087m-26.249-5.32c1.695 1.139 11.581 2.689 26.247 2.689 14.5 0 23.914-1.512 25.533-2.668v-3.308c0-9.782-6.511-17.739-14.514-17.739a7.229 7.229 0 0 1-6.781-4.677 13.4 13.4 0 0 1-9.187 0 7.231 7.231 0 0 1-6.781 4.677c-8.005 0-14.516 7.958-14.516 17.739Zm39.697-40.18H14.717a3.953 3.953 0 0 1-3.949-3.949V15.95a3.953 3.953 0 0 1 3.949-3.947h27.612a3.953 3.953 0 0 1 3.949 3.947v2.973a3.953 3.953 0 0 1-3.949 3.949m-27.612-8.234a1.318 1.318 0 0 0-1.317 1.315v2.973a1.318 1.318 0 0 0 1.317 1.312h27.612a1.318 1.318 0 0 0 1.317-1.317V15.95a1.318 1.318 0 0 0-1.317-1.312Z"/><path d="M43.069 14.752a1.322 1.322 0 0 1-.376-.052 1.33 1.33 0 0 0-.368-.065H14.717a1.32 1.32 0 0 0-.367.065 1.316 1.316 0 0 1-1.666-1.5 16.1 16.1 0 0 1 31.678 0 1.316 1.316 0 0 1-1.294 1.556M15.693 12h25.661a13.47 13.47 0 0 0-25.661 0m-3.82 55.573a1.317 1.317 0 0 1-1.317-1.319v-7.141a3.076 3.076 0 0 1 3.072-3.072h14.894a1.317 1.317 0 1 1 0 2.634H13.628a.437.437 0 0 0-.438.438v7.141a1.317 1.317 0 0 1-1.317 1.317"/><path d="M28.879 68.373a156.789 156.789 0 0 1-19.515-1.085C1.592 66.263 0 64.987 0 63.386v-3.621c0-11.234 7.692-20.371 17.148-20.371a4.608 4.608 0 0 0 4.4-3.2c.1-.315.194-.637.277-.963a1.317 1.317 0 0 1 1.864-.847 10.777 10.777 0 0 0 9.669 0 1.315 1.315 0 0 1 1.862.847q.127.489.279.962a4.606 4.606 0 0 0 4.4 3.2c9.454 0 17.146 9.139 17.146 20.371v3.621c0 1.6-1.53 2.878-9 3.9a148.913 148.913 0 0 1-19.164 1.087m-26.249-5.32c1.695 1.139 11.581 2.689 26.247 2.689 14.5 0 23.914-1.512 25.533-2.668v-3.308c0-9.782-6.511-17.739-14.514-17.739a7.229 7.229 0 0 1-6.781-4.677 13.4 13.4 0 0 1-9.187 0 7.231 7.231 0 0 1-6.781 4.677c-8.005 0-14.516 7.958-14.516 17.739Z"/><path d="M45.172 67.573a1.317 1.317 0 0 1-1.317-1.319v-7.141a.437.437 0 0 0-.438-.438H28.523a1.317 1.317 0 1 1 0-2.634h14.889a3.075 3.075 0 0 1 3.07 3.072v7.141a1.316 1.316 0 0 1-1.315 1.317"/><path d="M41.078 58.675H30.689a1.315 1.315 0 0 1-.931-.386l-4.359-4.359a1.316 1.316 0 0 1 .931-2.246 3.862 3.862 0 0 0 3.877-3.874 1.316 1.316 0 0 1 2.247-.934l9.555 9.552a1.317 1.317 0 0 1-.931 2.247m-9.843-2.632h6.666l-5.608-5.606a6.533 6.533 0 0 1-3.328 3.332Z"/><path d="M26.342 54.312a6.485 6.485 0 0 1-6.271-8.178 1.314 1.314 0 0 1 2.2-.59l1.345 1.345a1.268 1.268 0 0 0 1.794-1.791l-1.339-1.347a1.316 1.316 0 0 1 .59-2.2 6.493 6.493 0 1 1 1.685 12.762m-3.458-4.778a3.751 3.751 0 0 0 .727 1.017 3.863 3.863 0 1 0 5.456-5.465 3.815 3.815 0 0 0-1.015-.727 3.9 3.9 0 0 1-.785 4.389 3.9 3.9 0 0 1-4.389.784m-8.457 9.142a1.316 1.316 0 0 1-1.317-1.317V40.994a1.317 1.317 0 0 1 2.634 0v16.364a1.316 1.316 0 0 1-1.317 1.317m28.196 0a1.316 1.316 0 0 1-1.317-1.317V40.994a1.316 1.316 0 1 1 2.632 0v16.364a1.315 1.315 0 0 1-1.315 1.317"/></g></svg>