<svg xmlns="http://www.w3.org/2000/svg" width="89" height="38.878" viewBox="0 0 89 38.878"><path fill="#fff" d="M9.267 0C3.62 0 0 3.334 0 10.567v17.744c0 7.064 2.769 10.567 8.872 10.567 6.442 0 9.493-3.447 9.493-10.68V10.567C18.365 3.334 14.975 0 9.267 0Zm-.113 5.312c2.373 0 3.277 1.639 3.277 4.634v18.987c0 3.277-1.017 4.69-3.277 4.69-2.091 0-3.221-1.469-3.221-4.634V10.002c0-3.162 1.131-4.69 3.221-4.69Zm32.775 33h5.538V.565h-8.42c-1.469 9.041-3.56 20.286-4.182 25.655h-.057c-.509-5.312-1.978-16.048-3.447-25.655h-8.7v37.747h5.312V24.92c0-6.5-.226-15.031-.339-19.439h.113c.9 6.894 2.995 23 4.238 32.831h5.481c1.639-10.906 3.73-26.22 4.577-32.775h.057c-.113 4.351-.17 12.319-.17 18.7ZM66.62 15.709h-8.3V5.99h8.759V.565H52.496v37.747h14.692l.732-5.372h-9.6V21.078h8.3Zm9.493 22.6V27.972c0-6.781.057-11.867-.226-16.444h.057c.226 1.13.509 2.769 1.017 4.747l5.538 22.038h6.5V.565h-5.367v9.832c0 6.159 0 11.471.283 16.1h-.057c-.339-1.639-.735-3.9-1.413-6.668L77.42.565h-6.728v37.747Z"/></svg>