<svg xmlns="http://www.w3.org/2000/svg" width="156.313" height="156.61" viewBox="0 0 156.313 156.61"><path d="M75.504 11.759L72.549 0l1.648.027c.846 3.849 2.029 8.714 2.226 10.047h.017c.327-1.492 2.032-6.983 2.837-9.966l1.514.025c.664 2.635 2.166 8.6 2.395 10h.017c.42-2.012 2.141-7.52 2.819-9.915l1.531.025-3.6 11.652-1.666-.027c-.662-2.7-2.068-8.312-2.332-9.713h-.017c-.382 1.743-1.98 6.95-2.764 9.63zM89.373 8.551c-.293 1.709.345 3.09 1.769 3.348a1.965 1.965 0 002.257-.941l1.474.268a3.484 3.484 0 01-4 1.873c-2.633-.478-3.319-2.826-2.927-4.978.454-2.5 2.073-4.259 4.623-3.8 2.715.493 3.2 2.821 2.874 4.609-.048.264-.087.48-.143.692zm4.653-.2c.236-1.393-.258-2.629-1.682-2.888-1.49-.271-2.322.638-2.738 2.085zM97.562 6.262a19.3 19.3 0 001.926-4.076l1.476.407a14.953 14.953 0 01-2.219 3.995zM100.791 8.94c.386-1.131.587-1.773.734-2.2l1.37.467c-.06.229-.245.876-.511 1.657a2.98 2.98 0 013.332-.908l-.472 1.385c-1.673-.517-3.023 0-3.718 2.039l-1.336 3.918-1.4-.478zM106.46 13.358c-.714 1.58-.443 3.078.871 3.686a1.965 1.965 0 002.422-.344l1.36.629a3.484 3.484 0 01-4.343.808c-2.429-1.125-2.5-3.57-1.582-5.555 1.068-2.306 3.078-3.6 5.429-2.512 2.5 1.16 2.387 3.536 1.623 5.185-.113.244-.205.443-.312.634zm4.554.978c.579-1.29.411-2.61-.9-3.218-1.374-.637-2.408.034-3.176 1.33zM127.01 23.899c-1.955 2.573-5.119 3.762-8.053 1.532-2.748-2.086-2.667-5.364-.631-8.045s5.2-3.617 8.026-1.469c2.629 1.996 2.764 5.208.658 7.982zm-7.354-5.565c-1.527 2.01-1.851 4.553.159 6.08 2.158 1.639 4.382.518 5.889-1.465 1.527-2.01 1.841-4.455-.209-6.013-2.105-1.598-4.333-.585-5.84 1.398zM129.38 25.491c.552-.493 1.13-1.008 1.634-1.48l.94 1.055a13.121 13.121 0 01-.935.924 2.636 2.636 0 012.776.838 2.349 2.349 0 01.436 2.789 2.9 2.9 0 012.946 1c.93 1.043 1.176 2.558-.544 4.092l-4.181 3.729-.962-1.08 4.055-3.617c.728-.649 1.272-1.608.387-2.6-.93-1.042-2.111-.8-3.241.208l-3.654 3.258-.962-1.08 4.018-3.583c.816-.728 1.343-1.6.447-2.608s-2.173-.768-3.378.307l-3.528 3.147-.974-1.092zM137.38 38.837c-1.456.939-2.042 2.343-1.271 3.567a1.964 1.964 0 002.219 1.026l.8 1.266a3.483 3.483 0 01-4.084-1.68c-1.427-2.262-.161-4.354 1.689-5.521 2.148-1.356 4.538-1.352 5.921.84 1.473 2.333.084 4.264-1.453 5.233-.228.144-.412.261-.606.363zm3.292 3.294c1.186-.769 1.763-1.968.99-3.191-.808-1.28-2.04-1.279-3.387-.608zM143.718 44.764c.672-.309 1.361-.625 1.95-.915l.6 1.3a12.8 12.8 0 01-1.241.644 2.676 2.676 0 012.569 1.763c.674 1.468.307 3.007-1.757 3.955l-4.984 2.289-.618-1.345 4.816-2.212c1.177-.541 1.746-1.357 1.206-2.535-.674-1.468-2.057-1.536-3.617-.82l-4.1 1.882-.618-1.345zM139.328 55.427a12.2 12.2 0 004.561-.308l.494 1.414a10.035 10.035 0 01-4.656.037zM146.712 68.889a13.146 13.146 0 00-1.815.457l-.258-1.39a4.386 4.386 0 011.068-.335 2.718 2.718 0 01-1.773-2.358 2.584 2.584 0 012.039-3.306c1.87-.347 3 .966 3.468 3.465l.264 1.423.712-.132c.745-.138 1.6-.536 1.3-2.108-.258-1.39-1-1.509-1.672-1.538l-.26-1.406c1.179-.1 2.635.366 3.084 2.782.381 2.052-.251 3.351-2.154 3.7zm1.986-1.841l-.252-1.357c-.31-1.671-.94-2.479-2.115-2.261a1.5 1.5 0 00-1.2 1.918c.375 2.019 1.781 2.032 3.3 1.749zM151.519 71.074c.739-.037 1.5-.076 2.15-.126l.072 1.429a12.915 12.915 0 01-1.392.137 2.677 2.677 0 011.733 2.591c.082 1.613-.83 2.906-3.1 3.022l-5.478.278-.075-1.479 5.294-.269c1.294-.066 2.125-.613 2.059-1.907-.082-1.614-1.341-2.19-3.055-2.1l-4.5.229-.074-1.479zM148.436 86.998l-3.274-1.8.243-1.528 10.908 5.959-.3 1.877-12.247 2.464.261-1.645 3.676-.727zm.642 4.429c3.218-.63 4.924-.972 5.845-1.081v-.016c-.935-.439-2.786-1.431-5.239-2.724zM152.995 105.606l-9.476-3.01c-.754-.239-1.508-.479-2.3-.713l.428-1.347a8.3 8.3 0 011.179.287 2.661 2.661 0 01-.537-2.978c.667-2.1 2.774-2.843 5.243-2.059 2.5.795 3.9 2.776 3.189 5.02-.459 1.443-1.24 1.9-1.771 1.962l4.489 1.426zm-9.609-7.095c-.6 1.892.673 2.773 2.452 3.339 1.812.575 3.072.552 3.653-1.276.458-1.443-.4-2.687-2.372-3.313s-3.326-.033-3.733 1.25zM147.877 108c-3.639-.44-6.358-.783-7.432-.988l-.008.015c.768.582 2.7 2.489 5.464 5.194l-.635 1.356-6.4-6.45.692-1.479 8.989.918zM139.923 113.744c-1.479-.905-3-.824-3.766.4a1.965 1.965 0 00.037 2.445l-.795 1.269a3.484 3.484 0 01-.257-4.409c1.419-2.267 3.854-2.034 5.708-.873 2.154 1.348 3.186 3.5 1.811 5.7-1.464 2.338-3.805 1.925-5.346.961a9.063 9.063 0 01-.59-.389zm-1.541 4.4c1.207.735 2.537.735 3.306-.491.8-1.284.267-2.394-.922-3.317zM137.325 122.034c.57.472 1.154.955 1.67 1.36l-.912 1.1a12.92 12.92 0 01-1.118-.839 2.678 2.678 0 01-.474 3.08c-1.03 1.244-2.575 1.581-4.325.133l-4.225-3.5.943-1.141 4.083 3.379c1 .826 1.981.984 2.807-.015 1.03-1.244.491-2.519-.831-3.613l-3.473-2.875.943-1.14zM133.181 130.185l-1.058 1.036 1.765 1.8-1.047 1.024-1.765-1.8-1.347 1.318-.836-.854 1.347-1.318-3.5-3.572c-.588-.6-1.026-.76-1.58-.219a3.992 3.992 0 00-.482.566l-.777-.793a3.926 3.926 0 01.808-1c.95-.93 1.842-.837 2.83.173l3.743 3.824 1.058-1.036zM119.147 134.467c-.524-.658-1.25-1.544-1.564-1.938l1.119-.891c.163.15.5.548.849.959a2.527 2.527 0 011.092-2.762c1.133-.9 2.663-1.194 4.161.689l3.489 4.386-1.146.911-3.3-4.148c-.692-.869-1.618-1.466-2.724-.585-1.224.974-1.154 2.037.177 3.709l2.766 3.476-1.159.922zM119.04 138.974c.636 1.011 1.009 1.571 1.251 1.956l-1.225.771c-.14-.19-.527-.742-.966-1.439a2.981 2.981 0 01-1.39 3.161l-.779-1.239c1.454-.975 1.9-2.349.753-4.172l-2.2-3.5 1.253-.789zM106.356 143.704c-1.085-2.224-.7-4.658 1.644-5.8 2.193-1.069 4.35-.026 5.48 2.288 1.107 2.269.662 4.658-1.652 5.787-2.128 1.038-4.299.129-5.472-2.275zm5.77-2.834c-.827-1.694-2.271-2.505-3.647-1.834-1.391.679-1.625 2.234-.776 3.974.841 1.724 2.211 2.535 3.647 1.834s1.624-2.235.776-3.97zM97.319 144.904c-.264-.8-.638-1.88-.8-2.359l1.358-.448c.1.2.28.687.465 1.193a2.526 2.526 0 011.981-2.213c1.374-.454 2.91-.2 3.666 2.085l1.756 5.32-1.39.459-1.658-5.037c-.349-1.055-1.011-1.934-2.353-1.49-1.486.49-1.787 1.511-1.117 3.54l1.393 4.218-1.406.464zM94.293 145.553a1.927 1.927 0 00-2.333-1.049c-1.221.241-1.6.864-1.447 1.623.157.792.608 1.081 2.284 1.145 2.508.105 3.149.751 3.373 1.889.231 1.172-.412 2.516-2.559 2.94-2.162.427-3.3-.652-3.627-1.789l1.387-.273a1.7 1.7 0 002.069.929c1.172-.231 1.424-.864 1.317-1.409-.124-.627-.533-.873-2.139-.933-2.662-.109-3.34-.85-3.584-2.089-.29-1.469.67-2.772 2.75-3.183 2.162-.426 3.451.452 3.961 1.912zM82.565 156.582l-4.172-.068c-3.3-.053-5.48-2.344-5.424-5.826.057-3.465 2.267-5.936 5.666-5.881l4.121.067zm-1.379-10.421l-2.456-.04c-2.759-.045-4.086 1.919-4.129 4.56-.037 2.3 1.122 4.46 3.982 4.507l2.456.04zM69.837 154.791l-.232 1.819-1.468-.187.232-1.819zm.251-1.969l-1.469-.187 1.079-8.461 1.469.188zM60.446 143.108c.61-2.674 2.054-3.933 4.778-3.312 2.527.576 2.976 2.164 2.865 3.329l-1.46-.333a1.955 1.955 0 00-1.733-1.863c-1.887-.43-2.62.663-3.054 2.566l-.154.673a2.615 2.615 0 012.926-.868c2.051.468 3.063 2.46 2.505 4.9-.618 2.707-2.587 4-4.589 3.544-1.592-.364-2.1-1.255-2.149-1.854-.1.373-.28.92-.333 1.08l-1.346-.307c.109-.475.384-1.6.563-2.391zm3.56 1.347c-1.788-.408-2.591.686-3.01 2.524-.427 1.87-.189 3.1 1.583 3.5 1.542.352 2.625-.764 3.034-2.553.4-1.753-.246-3.16-1.607-3.471zM55.169 151.587l-.582 1.74-1.4-.469.582-1.74zm.63-1.883l-1.4-.47 2.708-8.092 1.4.47zM52.621 148.64l-1.369-.566-.964 2.333-1.353-.559.964-2.333-1.742-.72.456-1.1 1.742.72 1.909-4.62c.321-.778.3-1.244-.421-1.539a3.866 3.866 0 00-.709-.22l.424-1.027a3.936 3.936 0 011.24.348c1.229.508 1.494 1.364.955 2.671l-2.044 4.946 1.369.566zM43.693 136.995a13.344 13.344 0 00.783-1.7l1.244.672a4.447 4.447 0 01-.409 1.041 2.72 2.72 0 012.948.1 2.585 2.585 0 011.293 3.662c-.9 1.673-2.637 1.733-4.873.525l-1.273-.687-.344.636c-.36.667-.584 1.578.823 2.338a1.544 1.544 0 002.247-.336l1.259.68c-.663.981-1.939 1.822-4.1.655-1.837-.991-2.451-2.3-1.532-4zm.186 2.7l1.215.655c1.5.807 2.518.824 3.086-.227a1.5 1.5 0 00-.739-2.139c-1.807-.975-2.7.111-3.434 1.473zM42.688 134.078l-6.852 10.274-1.231-.821 6.851-10.273zM32.559 130.825l3.334-1.688 1.125 1.064-11.08 5.643-1.381-1.306 4.881-11.5 1.21 1.144-1.475 3.446zm-4.018-1.971c-1.3 3.012-1.978 4.614-2.408 5.435l.012.011c.89-.524 2.756-1.493 5.207-2.787zM23.717 116.915c2.161-1.689 4.075-1.753 5.8.448 1.6 2.042.942 3.556.12 4.391l-.922-1.181a1.953 1.953 0 00-.168-2.537c-1.192-1.525-2.45-1.14-3.988.062l-.544.424a2.614 2.614 0 012.817 1.173c1.3 1.658.823 3.841-1.152 5.385-2.188 1.71-4.532 1.47-5.8-.148-1.005-1.286-.833-2.3-.5-2.795-.315.225-.8.537-.94.628l-.849-1.087c.384-.3 1.31-1 1.946-1.5zm1.91 3.292c-1.13-1.445-2.443-1.1-3.928.057-1.512 1.182-2.1 2.284-.984 3.716.974 1.247 2.519 1.064 3.964-.065 1.42-1.109 1.804-2.608.948-3.708zM19.249 115.932c1.486-.892 2.116-2.278 1.384-3.525a1.964 1.964 0 00-2.186-1.1l-.758-1.292a3.484 3.484 0 014.029 1.81c1.355 2.307.023 4.358-1.863 5.466-2.191 1.288-4.58 1.207-5.892-1.027-1.4-2.38.052-4.266 1.619-5.186.232-.136.421-.247.618-.344zm-3.187-3.4c-1.21.731-1.824 1.911-1.092 3.159.767 1.306 2 1.343 3.367.716zM13.099 109.804c-.682.288-1.38.582-1.978.852l-.555-1.318a13.017 13.017 0 011.26-.6 2.676 2.676 0 01-2.512-1.844c-.627-1.488-.211-3.015 1.882-3.9l5.054-2.13.575 1.365-4.884 2.058c-1.194.5-1.788 1.3-1.285 2.5.627 1.489 2.008 1.6 3.589.934l4.156-1.752.575 1.365zM11.285 93.012a3.376 3.376 0 013.639 2.648c.623 2.272-.618 4.112-3.262 4.837-2.32.636-4.709-.122-5.38-2.572a3.174 3.174 0 011.839-4.045l.387 1.412a1.889 1.889 0 00-1.033 2.341c.4 1.444 1.872 1.929 3.738 1.418 1.882-.516 2.914-1.653 2.522-3.081a2.03 2.03 0 00-2.063-1.545zM4.989 91.315c3.851-1.948 5.975-3.017 6.808-3.375v-.017c-1-.128-3.022-.449-7.468-1.221l-.211-1.466 9.263 1.762c2.6.493 3.313 1.054 3.56 2.77.039.266.067.585.082.923l-1.266.182a9.663 9.663 0 00-.067-.7c-.153-1.066-.677-1.4-2.148-1.7l-8.323 4.426zM.003 78.275l.066-1.48 5.027.226a2.781 2.781 0 01-1.291-2.77c.1-2.152 1.923-3.418 4.444-3.3 2.589.116 4.581 1.52 4.474 3.924a2.489 2.489 0 01-1.441 2.446 9.222 9.222 0 011.124.117l-.063 1.412c-.957-.06-1.916-.1-2.857-.145zm5.032-3.632c-.081 1.816 1.1 2.509 3.135 2.6 1.782.08 3.22-.428 3.3-2.227.068-1.513-1.187-2.463-3.255-2.555-1.853-.083-3.117.702-3.183 2.182zM12.203 63.026a13.238 13.238 0 001.86.214l-.25 1.391a4.4 4.4 0 01-1.117-.064 2.718 2.718 0 01.826 2.833 2.584 2.584 0 01-3.076 2.371c-1.872-.336-2.469-1.965-2.02-4.466l.256-1.424-.712-.128c-.745-.134-1.682-.062-1.964 1.511-.25 1.391.4 1.765 1.02 2.03l-.253 1.407c-1.138-.324-2.336-1.274-1.9-3.693.369-2.054 1.419-3.045 3.324-2.7zm-2.508 1.02l-.244 1.358c-.3 1.673 0 2.651 1.179 2.862a1.5 1.5 0 001.8-1.369c.363-2.021-.948-2.529-2.472-2.8zM12.441 59.926a1.928 1.928 0 002.028-1.559c.366-1.19-.005-1.815-.745-2.042-.772-.237-1.24.024-2.089 1.47-1.28 2.159-2.152 2.419-3.262 2.078-1.142-.351-2.022-1.554-1.379-3.645.648-2.107 2.137-2.6 3.293-2.35l-.415 1.35a1.7 1.7 0 00-1.8 1.384c-.351 1.142.087 1.664.618 1.827.611.188 1.021-.056 1.835-1.443 1.356-2.294 2.33-2.54 3.536-2.169 1.432.44 2.126 1.9 1.5 3.93-.648 2.107-2.031 2.826-3.558 2.585zM13.627 51.598c1.588.693 3.082.4 3.674-.918a1.964 1.964 0 00-.375-2.416l.612-1.367a3.483 3.483 0 01.863 4.331c-1.093 2.441-3.536 2.546-5.532 1.652-2.319-1.038-3.639-3.03-2.58-5.395 1.127-2.518 3.5-2.431 5.162-1.689.245.11.445.2.638.3zm.919-4.565c-1.3-.562-2.614-.378-3.206.943-.618 1.382.066 2.407 1.371 3.157zM13.769 33.768l8.448 5.242c.672.417 1.344.834 2.053 1.254l-.745 1.2a8.357 8.357 0 01-1.074-.567 2.661 2.661 0 01-.209 3.018c-1.162 1.873-3.387 2.076-5.589.711-2.23-1.384-3.1-3.648-1.86-5.649.8-1.286 1.667-1.539 2.2-1.467l-4-2.484zm7.575 9.234c1.047-1.687.028-2.853-1.558-3.838-1.615-1-2.843-1.289-3.854.341-.8 1.286-.271 2.7 1.487 3.794 1.744 1.082 3.215.847 3.925-.297zM20.252 28.425l-1.386-1.2.971-1.119 1.386 1.2zm1.5 1.3l.971-1.119 6.445 5.589-.97 1.119zM26.226 27.862c-.51-.537-1.031-1.086-1.5-1.551l1.037-.985a13.012 13.012 0 011.011.967 2.676 2.676 0 01.84-3c1.172-1.112 2.748-1.261 4.312.386l3.777 3.98-1.074 1.02-3.65-3.846c-.892-.94-1.85-1.215-2.789-.323-1.172 1.112-.79 2.444.392 3.689l3.1 3.272-1.074 1.02zM35.979 12.882l3.644 6.035c1.426 2.362 3.114 2.228 4.4 1.454 1.5-.9 2.146-2.239.746-4.558l-3.644-6.035 1.34-.809 3.6 5.963c1.965 3.255.73 5.278-1.4 6.565-2.089 1.261-4.512 1.349-6.373-1.734L34.631 13.7zM46.547 7.004l1.424-.565 2.121 5.351c.479-1.168 2.162-5 3.167-7.448l1.8-.713-2.854 6.454 7.407 4.342-1.753.695-6.3-3.71-.89 1.819 1.625 4.1-1.424.564zM60.929 14.282l-.644-2.406 1.5-.4.643 2.406z"></path></svg>