<svg xmlns="http://www.w3.org/2000/svg" width="49.852" height="44.102" viewBox="0 0 49.852 44.102"><g fill="currentColor"><path d="M49.035 20.771h-5a.817.817 0 0 0-.817.817v3.118H6.635V14.7a.815.815 0 0 0-.817-.815h-5a.815.815 0 0 0-.816.815v28.583a.817.817 0 0 0 .816.818h5a.817.817 0 0 0 .817-.818v-8.92h36.581v8.92a.817.817 0 0 0 .817.818h5a.817.817 0 0 0 .817-.818v-21.7a.817.817 0 0 0-.815-.812Zm-4.185 21.7V22.404h3.369v20.065Zm-43.217 0V15.517h3.369v26.952Zm5-16.129h36.581v6.39H6.635Z"></path><path d="M9.902 17.883a2.453 2.453 0 0 0-2.45 2.45v1.11a2.452 2.452 0 0 0 2.45 2.449h6.023a2.452 2.452 0 0 0 2.45-2.449v-1.11a2.453 2.453 0 0 0-2.45-2.45Zm6.84 3.56a.818.818 0 0 1-.817.816H9.902a.817.817 0 0 1-.816-.816v-1.11a.817.817 0 0 1 .816-.817h6.023a.817.817 0 0 1 .817.817ZM30.378 15.458h4.792a.612.612 0 0 0 .613-.612v-4.108h4.108a.613.613 0 0 0 .612-.613V5.333a.611.611 0 0 0-.612-.611h-4.108V.613A.614.614 0 0 0 35.17 0h-4.792a.613.613 0 0 0-.612.613v4.109h-4.107a.611.611 0 0 0-.613.611v4.792a.613.613 0 0 0 .613.613h4.108v4.108a.611.611 0 0 0 .611.612ZM26.27 5.947h4.108a.613.613 0 0 0 .613-.614V1.225h3.568v4.108a.613.613 0 0 0 .612.614h4.108v3.566h-4.108a.611.611 0 0 0-.612.612v4.109h-3.567v-4.109a.612.612 0 0 0-.613-.612h-4.108Z"></path></g></svg>