<svg xmlns="http://www.w3.org/2000/svg" width="44.879" height="43.224" viewBox="0 0 44.879 43.224"><path fill="currentColor" d="M19.919 18.368a.825.825 0 0 0 1.206 0l7.806-8.27.011-.015a6.02 6.02 0 0 0 1.286-2.159 6.282 6.282 0 0 0 .328-2.007 5.751 5.751 0 0 0-5.552-5.922 5.438 5.438 0 0 0-4.495 2.474 5.438 5.438 0 0 0-4.495-2.474 5.752 5.752 0 0 0-5.552 5.922 6.257 6.257 0 0 0 .314 1.963 6.035 6.035 0 0 0 1.031 1.894 5.512 5.512 0 0 0 .584.618Zm-7.8-10.983a4.656 4.656 0 0 1-.235-1.468 4.547 4.547 0 0 1 1.217-3.129 3.972 3.972 0 0 1 2.917-1.293 4.148 4.148 0 0 1 3.765 2.6.783.783 0 0 0 1.459 0 4.149 4.149 0 0 1 3.766-2.6 3.972 3.972 0 0 1 2.917 1.292 4.55 4.55 0 0 1 1.216 3.13 4.646 4.646 0 0 1-.245 1.5 4.529 4.529 0 0 1-.974 1.631l-7.4 7.835-7.133-7.554-.04-.039a4.424 4.424 0 0 1-1.233-1.9Zm32.584 19.544a.916.916 0 0 0-.739-.377c-2.253 0-3.792-1.216-5.573-2.627-.388-.306-.779-.617-1.182-.917a10.878 10.878 0 0 0-6.753-2.487c-1.291 0-2.284.014-3.1.039h-6.325a2.7 2.7 0 0 0 0 5.4h5.85a1.729 1.729 0 0 1 1.287 1.736 1.8 1.8 0 0 1-.767 1.5l-2.16.612c-.728.187-1.468.394-2.242.632l-.15.043c-4.019 1.134-5.4 1.514-5.811 1.621a2.425 2.425 0 0 1-.415-.016l-9.181-6.347-1.675-1.291a.778.778 0 0 0-.1-.065 3.498 3.498 0 0 0-.282-.168 3.436 3.436 0 0 0-.551-.24 3.51 3.51 0 0 0-.463-.107 3.041 3.041 0 0 0-1.132.018 3.7 3.7 0 0 0-3.246 3.761 3.843 3.843 0 0 0 1.034 2.637l.046.049a3.725 3.725 0 0 0 .8.632l15.255 11.792a.876.876 0 0 0 .271.144l.152.062a3.862 3.862 0 0 0 1.364.26 3.95 3.95 0 0 0 .815-.087l.057-.013.069-.019c5.469-1.484 15.343-4.159 20.028-5.392a.588.588 0 0 0 .1-.032l.3-.118a16.736 16.736 0 0 1 3.658-.674.914.914 0 0 0 .914-.914v-.6a.879.879 0 0 0 .012-.164l-.012-7.594a.913.913 0 0 0-.153-.689Zm-1.66 8.194a24.354 24.354 0 0 0-3.273.687 2.33 2.33 0 0 0-.1.033l-.295.116c-4.711 1.24-14.539 3.9-19.994 5.382l-.042.012a1.985 1.985 0 0 1-1.115-.092l-.074-.029L2.95 29.48a.769.769 0 0 0-.12-.078 1.894 1.894 0 0 1-.431-.332l-.02-.023a2.019 2.019 0 0 1-.552-1.4 1.883 1.883 0 0 1 1.64-1.945c.036 0 .073-.01.108-.017a1.477 1.477 0 0 1 .511-.012 1.608 1.608 0 0 1 .194.042 2.072 2.072 0 0 1 .4.2l.02.014 1.645 1.269c.012.01.025.018.038.027l9.353 6.467a.907.907 0 0 0 .288.132 3.853 3.853 0 0 0 1.2.1.819.819 0 0 0 .171-.025c.428-.107 2.43-.666 5.95-1.658l.171-.049a48.676 48.676 0 0 1 2.2-.62l2.312-.654a.922.922 0 0 0 .214-.092 3.632 3.632 0 0 0 1.756-3.13 3.544 3.544 0 0 0-2.87-3.551.835.835 0 0 0-.158-.013h-5.938a.881.881 0 0 1 0-1.745h6.354c.81-.025 1.814-.038 3.067-.038a9.07 9.07 0 0 1 5.661 2.125c.389.29.766.588 1.139.884 1.669 1.321 3.39 2.683 5.781 2.969v5.883l.011.874Z"/></svg>