<svg xmlns="http://www.w3.org/2000/svg" width="39.12" height="44.262" viewBox="0 0 39.12 44.262"><g fill="currentColor"><path d="M25.379 0a13.116 13.116 0 0 0-5.819 1.664A13.12 13.12 0 0 0 13.741 0 13.757 13.757 0 0 0 0 13.739c0 .862.869 3.289 2.7 8.071.459 1.2.893 2.338 1.006 2.7.136.7.271 1.7.426 2.85.58 4.3 1.454 10.791 4.119 15.666a1.739 1.739 0 0 0 .923 1.062 1.854 1.854 0 0 0 .786.168 3.977 3.977 0 0 0 2.058-.748c1.062-.676 1.242-2.427 1.541-5.328.6-5.832 1.505-11.094 5.933-11.443 4.427.349 5.334 5.611 5.933 11.443.3 2.9.479 4.652 1.542 5.328 1.158.737 2.089.927 2.843.58a1.736 1.736 0 0 0 .923-1.062c2.507-4.58 3.517-10.3 4.33-14.911.195-1.1.38-2.151.569-3.086.353-.936 3.492-9.341 3.492-11.293A13.757 13.757 0 0 0 25.379 0Zm8.264 24.547c-.2.982-.392 2.069-.594 3.219-.794 4.5-1.782 10.092-4.17 14.392l-.017.032a3.112 3.112 0 0 1-.757-.369 15.358 15.358 0 0 1-.653-3.844c-.525-5.111-1.32-12.836-7.9-13.278h-.136c-6.576.442-7.371 8.167-7.9 13.278a15.322 15.322 0 0 1-.652 3.844 3.112 3.112 0 0 1-.757.369l-.017-.032C7.562 37.607 6.709 31.28 6.144 27.093c-.163-1.209-.3-2.253-.455-3.019a1.007 1.007 0 0 0-.02-.083c-.111-.384-.462-1.308-1.073-2.907a72.823 72.823 0 0 1-2.562-7.342 11.713 11.713 0 0 1 11.7-11.7 12.1 12.1 0 0 1 5.351 1.673 1.018 1.018 0 0 0 .936 0 12.1 12.1 0 0 1 5.351-1.673 11.712 11.712 0 0 1 11.7 11.7c0 1.221-2.4 8.1-3.387 10.641a1.182 1.182 0 0 0-.039.164Z"></path><path d="M29.327 7.679a4.185 4.185 0 1 0 .918 7.679 4.185 4.185 0 0 0-.918-7.678Zm-3.356 5.278a2.553 2.553 0 0 1 2.221-3.8 2.574 2.574 0 0 1 .694.095 2.552 2.552 0 1 1-2.915 3.706Z"></path></g></svg>