<svg xmlns="http://www.w3.org/2000/svg" width="104.029" height="145.616" viewBox="0 0 104.029 145.616"><path fill="currentColor" fill-rule="evenodd" d="M45.129 0s-2.363 22.3 24.795 35.419c21.249 10.234 11.413 33.849 6.294 43.425-2.882 5.245-6.688 11.148-3.277 14.69 3.936 4.2 10.1 3.412 11.808-2.883 2.1-7.351-.13-14.04 19.281-17.581 0 0-11.934 6.953-6.949 35.423 4.985 28.6-26.108 37.123-26.108 37.123s14.43-17.972 8.267-29.645c0 0-3.412 12.982-17.188 12.856 0 0 5.774-13.516-2.358-20.6-11.678-10.234-10.5-18.76-3.806-32.8 0 0-17.841 16.668-13.251 32.931 1.179 4.2 5.644 14.3-2.362 15.349-9.051 1.183-8.921-10.495-4.985-16.4 0 0-18.891 17.841.529 38.306-46.442-14.17-8.4-47.751-35.818-72.286 0 0 10.234-5.379 18.236 7.742 2.493 4.2 7.872 10.364 12.068 6.558 3.936-3.407-1.964-11.278-3.936-17.447-2.358-7.478-3.147-17.447 3.541-27.023 0 0-.39 18.891 10.759 20.988a4.715 4.715 0 0 0 5.514-2.626c10.36-20.2-21.648-31.089-1.053-61.523Z"/></svg>