<svg xmlns="http://www.w3.org/2000/svg" width="41.247" height="46" viewBox="0 0 41.247 46"><g fill="none" stroke="currentColor" stroke-miterlimit="10" stroke-width="2" transform="translate(-3 -1)"><path stroke-linecap="square" d="M4 34h14M4 9h30m0 28v6a3 3 0 0 1-3 3H7a3 3 0 0 1-3-3V5a3 3 0 0 1 3-3h24.027a3 3 0 0 1 3 3.006L34 19"/><circle cx="2" cy="2" r="2" stroke-linecap="square" transform="translate(25 33)"/><circle cx="2" cy="2" r="2" stroke-linecap="square" transform="translate(39 33)"/><path d="M24.9 19H43l-2 9H27l-3-13h-4"/></g></svg>