<svg xmlns="http://www.w3.org/2000/svg" width="40.589" height="44.956" viewBox="0 0 40.589 44.956"><g fill="none" stroke="currentColor" stroke-miterlimit="10" stroke-width="2"><path d="M8.408 25.933C10.853 31.323 15.57 35 20.294 35s9.441-3.677 11.886-9.067M32.929 9a13.978 13.978 0 00-25.27 0"></path><path stroke-linecap="square" d="M8.294 15h24M38.294 23V12a3 3 0 00-3-3h-30a3 3 0 00-3 3v11a3 3 0 003 3h10l2.119-3.391a3.4 3.4 0 015.762 0L25.294 26h10a3 3 0 003-3z"></path><path d="M13.294 32.321v3.248A6 6 0 019.059 41.3L.294 44M40.294 44l-8.765-2.7a6 6 0 01-4.235-5.731v-3.248"></path></g></svg>