<svg xmlns="http://www.w3.org/2000/svg" width="27.75" height="33.979" viewBox="0 0 27.75 33.979"><path d="M3.823 30.723Q.237 27.467.048 21.048 0 19.68.001 17.036q0-2.69.047-4.058.188-6.276 3.87-9.628T13.828 0q6.231 0 9.934 3.35t3.893 9.628q.094 2.737.095 4.058 0 1.275-.095 4.012-.236 6.419-3.823 9.675T13.827 33.98q-6.418 0-10.004-3.257zm15.055-4.082q1.887-1.911 2.029-5.829.094-2.832.095-3.822 0-1.085-.095-3.823-.141-3.917-2.029-5.828a7.564 7.564 0 00-10.053 0Q6.937 9.25 6.796 13.167q-.047 1.369-.047 3.823 0 2.406.047 3.822.142 3.918 2.006 5.829a6.7 6.7 0 005.026 1.911 6.78 6.78 0 005.05-1.911z" fill="#272727"></path></svg>