<svg xmlns="http://www.w3.org/2000/svg" width="50.674" height="50.674" viewBox="0 0 50.674 50.674"><path fill="currentColor" d="M29.743 28.642h-8.814a1.1 1.1 0 0 0-1.1 1.1v19.831a1.1 1.1 0 0 0 1.1 1.1h8.813a1.1 1.1 0 0 0 1.1-1.1V29.742a1.1 1.1 0 0 0-1.099-1.1zM9.914 39.658H1.1a1.1 1.1 0 0 0-1.1 1.1v8.813a1.1 1.1 0 0 0 1.1 1.1h8.813a1.1 1.1 0 0 0 1.1-1.1v-8.813a1.1 1.1 0 0 0-1.099-1.1zm39.659-22.032h-8.815a1.1 1.1 0 0 0-1.1 1.1v30.847a1.1 1.1 0 0 0 1.1 1.1h8.813a1.1 1.1 0 0 0 1.1-1.1V18.726a1.1 1.1 0 0 0-1.098-1.1zM26.116 17.3 39.658 3.761v7.255a1.1 1.1 0 1 0 2.2 0V1.1a1.1 1.1 0 0 0-1.1-1.1h-9.913a1.1 1.1 0 0 0 0 2.2H38.1L25.336 14.966l-8.033-8.034a1.1 1.1 0 0 0-1.558 0L4.729 17.949l1.558 1.558L16.524 9.269l8.034 8.031a1.1 1.1 0 0 0 1.558 0z"/></svg>