<svg xmlns="http://www.w3.org/2000/svg" width="46.501" height="46.494" viewBox="0 0 46.501 46.494"><g fill="none" stroke="currentColor" stroke-miterlimit="10" stroke-width="3" transform="translate(1.612 1.585)"><path d="m27.325 4.02 11.904 11.903M22.466 6.854c-5.749-2.476-13.118-.947-18.53 5.939l6.626 6.628m25.881 1.409c2.476 5.749.95 13.118-5.939 18.53l-6.628-6.626"/><path stroke-linecap="square" d="M18.696 35.425 7.872 24.6S16.624 1.391 43.297 0c-1.508 26.557-24.601 35.425-24.601 35.425z"/><circle cx="4.067" cy="4.067" r="4.067" stroke-linecap="square" transform="translate(20.573 14.591)"/><path stroke-linecap="square" d="M2.425 33.913a4.921 4.921 0 0 1 6.959 6.959C7.462 42.792 0 43.296 0 43.296s.5-7.462 2.425-9.383z"/></g></svg>