<svg xmlns="http://www.w3.org/2000/svg" width="46.501" height="46.494" viewBox="0 0 46.501 46.494"><g transform="translate(1.612 1.585)" fill="none" stroke="currentColor" stroke-miterlimit="10" stroke-width="3"><path d="M27.325 4.02l11.904 11.903M22.466 6.854c-5.749-2.476-13.118-.947-18.53 5.939l6.626 6.628M36.443 20.83c2.476 5.749.95 13.118-5.939 18.53l-6.628-6.626"></path><path d="M18.696 35.425L7.872 24.6S16.624 1.391 43.297 0c-1.508 26.557-24.601 35.425-24.601 35.425z" stroke-linecap="square"></path><circle cx="4.067" cy="4.067" r="4.067" transform="translate(20.573 14.591)" stroke-linecap="square"></circle><path d="M2.425 33.913a4.921 4.921 0 016.959 6.959C7.462 42.792 0 43.296 0 43.296s.5-7.462 2.425-9.383z" stroke-linecap="square"></path></g></svg>