<svg xmlns="http://www.w3.org/2000/svg" width="767.244" height="748.625" viewBox="0 0 767.244 748.625"><path fill="currentColor" d="M553.499 608.393 494.776 455.23l163.55 8.629-137.365-89.453 137.274-89.303-163.548 8.441 58.552-153.11-127.243 103.113-42.52-158.428-42.338 158.384L213.79 140.254l58.723 153.163-163.55-8.628 137.365 89.452-137.274 89.303 163.548-8.441-58.552 153.11L341.293 505.1l42.52 158.428 42.338-158.383 127.348 103.25m11.35 15.638L428.99 513.882l-45.168 168.97L338.46 513.83 202.727 623.824l62.461-163.332-174.452 9.003 146.427-95.256-146.536-95.424 174.462 9.204-62.65-163.404 135.86 110.15 45.168-168.97 45.362 169.021 135.733-109.993L502.1 288.155l174.452-9.003-146.427 95.256 146.536 95.425-174.462-9.205 62.65 163.404z"/></svg>