<svg xmlns="http://www.w3.org/2000/svg" width="66.054" height="66.054" viewBox="0 0 66.054 66.054"><g fill="currentColor"><path d="M33.031 66.054c-4.016-20.4-5.412-23.312-7.274-25.753-2.441-1.862-5.348-3.258-25.753-7.274 20.401-4.012 23.308-5.412 25.749-7.275 1.862-2.437 3.258-5.347 7.278-25.752 4.013 20.405 5.409 23.315 7.27 25.752 2.441 1.863 5.349 3.258 25.753 7.275-20.4 4.016-23.312 5.412-25.753 7.274-1.861 2.441-3.257 5.348-7.27 25.753z"></path><path d="M16.713 13.666l6.2.6-6.2.6a2.706 2.706 0 00-2.23 2.23l-.6 6.2-.6-6.2a2.7 2.7 0 00-2.23-2.23l-6.2-.6 6.2-.6a2.707 2.707 0 002.23-2.231l.6-6.2.6 6.2a2.708 2.708 0 002.23 2.231zM48.777 47.804l2.442.235-2.442.235a1.065 1.065 0 00-.878.878l-.235 2.441-.233-2.441a1.064 1.064 0 00-.878-.878l-2.441-.235 2.441-.235a1.065 1.065 0 00.878-.878l.235-2.441.235 2.441a1.066 1.066 0 00.876.878zM24.007 5.77l2.442.235-2.442.236a1.063 1.063 0 00-.878.877l-.235 2.441-.235-2.444a1.062 1.062 0 00-.878-.877l-2.441-.236 2.441-.235a1.064 1.064 0 00.878-.878l.235-2.441.235 2.441a1.065 1.065 0 00.878.881zM23.892 48.457l4.248.324-4.248.323a5.622 5.622 0 00-5.179 5.178l-.322 4.247-.324-4.247a5.619 5.619 0 00-5.179-5.178l-4.247-.323 4.247-.324a5.619 5.619 0 005.179-5.178l.324-4.247.322 4.247a5.622 5.622 0 005.179 5.178zM44.302 56.837l2.62.2-2.62.2a3.467 3.467 0 00-3.194 3.195l-.2 2.619-.2-2.619a3.467 3.467 0 00-3.194-3.195l-2.62-.2 2.62-.2a3.467 3.467 0 003.194-3.193l.2-2.621.2 2.621a3.467 3.467 0 003.194 3.193zM46.38 16.753l-7.741-.238 7.741-.24c1.93-.317 2.6-.992 2.921-2.921l.239-7.741.24 7.741c.318 1.929.992 2.6 2.922 2.921l7.74.24-7.74.239c-1.93.317-2.6.991-2.922 2.921l-.24 7.741-.239-7.741c-.318-1.931-.991-2.605-2.921-2.922z"></path></g></svg>