<svg xmlns="http://www.w3.org/2000/svg" width="154.615" height="172.107" viewBox="0 0 154.615 172.107"><path d="M118.81 39.443l17.686 17.686a7.711 7.711 0 010 10.89l-14.778 14.778 8.273 8.274-21.226 4.68-58.236 58.235a7.711 7.711 0 01-9.632 1.018 7.479 7.479 0 01-1.26-1.018l-19.375-19.375a7.711 7.711 0 010-10.889L92.87 51.114a23.9 23.9 0 01-2.437-.674l-71.725 71.725a9.915 9.915 0 000 14l19.374 19.375a9.718 9.718 0 001.233 1.046 9.914 9.914 0 0012.772-1.046l57.779-57.778 24.524-5.403-9.559-9.56 13.223-13.222a9.915 9.915 0 000-14.001l-18.191-18.191a22.131 22.131 0 01-1.054 2.058z" fill="#1c1c1c"></path><path d="M115.069 44.316l12.035 12.035a8.8 8.8 0 010 12.445l-85.971 85.97a8.8 8.8 0 01-12.445 0l-22.46-22.46a8.8 8.8 0 010-12.445L81.77 44.32a23.429 23.429 0 009.128 5.66 23.9 23.9 0 002.437.676 23.564 23.564 0 0021.734-6.339z" fill="#9166ff"></path><g fill="#fff"><path d="M29.6 115.07l5.245-5.245 12.148 12.148 8.375-8.375 4.177 4.176-13.62 13.62zM61.99 115.329L45.666 99.004l5.243-5.244 16.325 16.325zM75.42 101.9L53.305 91.363l5.599-5.599 14.188 7.64.095-.095-7.616-14.212 5.362-5.362 10.558 22.09zM73.118 71.552l14.117-14.117 3.915 3.915-8.874 8.874 2.254 2.255 7.593-7.593 3.748 3.747-7.593 7.593 2.491 2.491 9.04-9.04 3.916 3.915L89.44 87.876z"></path></g><circle cx="19.563" cy="19.563" r="19.563" fill="#ff5983" transform="rotate(-45 68.771 -71.57)"></circle><path d="M103.933 22.826l-2.685 13.282a.574.574 0 01-.968.292l-10.6-10.6a.574.574 0 01.292-.968l13.281-2.685a.574.574 0 01.68.68z" fill="#fff"></path></svg>