<svg xmlns="http://www.w3.org/2000/svg" width="237.647" height="50.783" viewBox="0 0 237.647 50.783"><path fill="currentColor" d="M237.153 17.784a131.559 131.559 0 00-69.672-16.776 138.781 138.781 0 00-32.11 4.906C130.84 2.069 125.124.427 119.255.08c-6.527-.387-13.149.656-19.578 1.685q-9.354 1.5-18.541 3.856a204.375 204.375 0 00-68.32 31.795c-.434.312-.864.628-1.3.943 1.273-1.883 2.549-3.763 3.882-5.605q1.5-2.068 3.06-4.091l-.417.54c1-1.3 1.974-2.612 2.971-3.911 1.259-1.614 2.58-3.179 3.831-4.8q-.171.219-.34.44 1.371-1.773 2.79-3.508a4.5 4.5 0 00.533-.736c.077-.147.156-.293.235-.439q.129-.242.259-.481l.118-.219.014-.026.025-.03c.275-.349.545-.7.814-1.053a3.871 3.871 0 00.472-1.1.785.785 0 00-.959-.959 4.257 4.257 0 00-1.03.4c-.369.242-.708.534-1.052.81-.034.028-.072.062-.11.092l-.066.038c-.14.086-.288.161-.432.242a7.514 7.514 0 00-1.178.739c-1.07.9-2.1 1.858-3.132 2.805-1.016.933-1.972 1.935-2.93 2.927s-1.905 2-2.838 3.011c-1.89 2.056-3.652 4.226-5.375 6.422-1.834 2.337-3.664 4.695-5.323 7.16a93.941 93.941 0 00-4.974 8 2.872 2.872 0 00.222 3.155 2.714 2.714 0 001.137.875 3 3 0 001.85.143c.885-.174 1.774-.32 2.663-.475a76.99 76.99 0 0110.311-.266c1.741.067 3.484.1 5.223.207 1.765.107 3.537.166 5.3.3q1.476.114 2.945.283c.9.1 1.808.217 2.711.271 1.118.211 2.242.385 3.357.615.6.122 1.2.212 1.8.32l.421.077a3.105 3.105 0 00.673.118l.241.032.2.025.507.062a1.112 1.112 0 001.074-.817 1.143 1.143 0 00-.512-1.258 23.422 23.422 0 00-3.559-1.618c-1.151-.418-2.315-.85-3.5-1.173l.442.186a36.7 36.7 0 00-6.055-1.854 57.272 57.272 0 00-2.847-.625 51.15 51.15 0 00-3.57-.521q-1.489-.168-2.983-.279c-.993-.074-1.994-.066-2.989-.061q-2.964.015-5.922.248c-.062 0-.123.011-.185.016a209.871 209.871 0 0160.885-31.008 206.744 206.744 0 0134.616-7.797c8.545-1.151 19.318-2.181 26.754 2.818a132.854 132.854 0 00-16.451 6.316c-5.036 2.326-10.389 4.888-13.869 9.377-3.4 4.389-3.583 10.305.554 14.319 4.734 4.593 11.606 4.407 17.572 2.8 9.512-2.564 21.318-8.556 22.439-19.578a16.141 16.141 0 00-3.878-11.726 134.278 134.278 0 0124.251-4.015 139.757 139.757 0 0166.446 11.376q3.807 1.695 7.5 3.622c1.144.591 2.142-1.09 1.015-1.733zm-100.812-5.936a12.229 12.229 0 01.633 12.992c-2.333 4.1-6.482 6.89-10.64 8.9a46.079 46.079 0 01-7.414 2.78 20.885 20.885 0 01-9.383.937c-4.624-.841-9.022-4.873-7.416-9.9 1.5-4.7 6.738-7.606 10.854-9.67a124.948 124.948 0 0115.649-6.551q2.9-.993 5.853-1.847a17.445 17.445 0 011.864 2.359z"></path></svg>