<svg xmlns="http://www.w3.org/2000/svg" width="101.58" height="21.6" viewBox="0 0 101.58 21.6"><path d="M8.79 21.6a9.12 9.12 0 01-6.36-2.07 8.238 8.238 0 01-2.4-6.15Q0 12.51 0 10.83q0-1.71.03-2.58a8.211 8.211 0 012.46-6.12A9 9 0 018.79 0a9.058 9.058 0 016.315 2.13 8.182 8.182 0 012.475 6.12q.06 1.74.06 2.58 0 .81-.06 2.55a8.329 8.329 0 01-2.43 6.15 9.12 9.12 0 01-6.36 2.07zm0-3.45A4.308 4.308 0 0012 16.935a5.371 5.371 0 001.29-3.7q.06-1.8.06-2.43 0-.69-.06-2.43a5.371 5.371 0 00-1.29-3.7A4.308 4.308 0 008.79 3.46a4.269 4.269 0 00-3.18 1.215 5.371 5.371 0 00-1.29 3.7q-.03.87-.03 2.43 0 1.53.03 2.43a5.416 5.416 0 001.275 3.7A4.258 4.258 0 008.79 18.15zm13.53 3.15a.762.762 0 01-.54-.2.682.682 0 01-.21-.525V1.05a.731.731 0 01.21-.54.731.731 0 01.54-.21h2.37a.926.926 0 01.9.57l5.79 10.8L37.23.87a.964.964 0 01.9-.57h2.34a.731.731 0 01.54.21.731.731 0 01.21.54v19.53a.682.682 0 01-.21.525.762.762 0 01-.54.2h-2.52a.694.694 0 01-.51-.21.694.694 0 01-.21-.51V7.59l-4.2 8.01a1.16 1.16 0 01-1.02.66h-1.23a1.16 1.16 0 01-1.02-.66l-4.2-8.01v12.99a.722.722 0 01-.195.51.682.682 0 01-.525.21zm24.3 0a.694.694 0 01-.51-.21.694.694 0 01-.21-.51V1.05a.762.762 0 01.195-.54.682.682 0 01.525-.21h13.2a.731.731 0 01.54.21.731.731 0 01.21.54v1.98a.682.682 0 01-.21.525.762.762 0 01-.54.195h-9.87v5.31h9.21a.762.762 0 01.54.195.682.682 0 01.21.525v1.86a.682.682 0 01-.21.525.762.762 0 01-.54.195h-9.21v5.49h10.11a.731.731 0 01.54.21.731.731 0 01.21.54v1.98a.682.682 0 01-.21.525.762.762 0 01-.54.2zm18.66 0a.694.694 0 01-.51-.21.694.694 0 01-.21-.51V1.05a.762.762 0 01.195-.54.682.682 0 01.525-.21h2.31a.9.9 0 01.54.135 1.557 1.557 0 01.33.345l8.64 13.44V1.05a.762.762 0 01.195-.54.682.682 0 01.525-.21h2.52a.731.731 0 01.54.21.731.731 0 01.21.54v19.5a.731.731 0 01-.21.54.694.694 0 01-.51.21h-2.34a1.061 1.061 0 01-.87-.48L68.55 7.68v12.9a.682.682 0 01-.21.525.762.762 0 01-.54.2zm27.78.3a11.773 11.773 0 01-4.59-.81 6.862 6.862 0 01-2.91-2.13 5 5 0 01-1.05-2.85.611.611 0 01.18-.45.611.611 0 01.45-.18h2.67a.968.968 0 01.555.135 1.386 1.386 0 01.375.435 3.059 3.059 0 001.38 1.71 5.42 5.42 0 002.94.69 5.923 5.923 0 003.21-.705 2.223 2.223 0 001.08-1.965 1.842 1.842 0 00-.555-1.38 4.532 4.532 0 00-1.65-.93q-1.095-.39-3.255-.96a12.494 12.494 0 01-5.175-2.235A4.938 4.938 0 0185.08 6a5.256 5.256 0 01.945-3.09 6.314 6.314 0 012.73-2.13A10.3 10.3 0 0192.91 0a9.7 9.7 0 014.26.87 7.12 7.12 0 012.745 2.175 4.809 4.809 0 011 2.6.611.611 0 01-.18.45.611.611 0 01-.45.18H97.5a.87.87 0 01-.87-.57 2.431 2.431 0 00-1.2-1.605 4.626 4.626 0 00-2.52-.645 4.773 4.773 0 00-2.64.63 2.054 2.054 0 00-.96 1.83 2 2 0 00.48 1.38 4.037 4.037 0 001.515.96 25.723 25.723 0 002.985.93 20.751 20.751 0 014.215 1.35 5.534 5.534 0 012.325 1.89 5.2 5.2 0 01.75 2.91 5.432 5.432 0 01-1.065 3.345 6.616 6.616 0 01-3 2.175 12.271 12.271 0 01-4.455.745z" fill="#272727"/></svg>